<svg xmlns="http://www.w3.org/2000/svg" viewBox="226 54 2653 2653" width="512" height="512">
  <g id="silhouette">
    <path d="M0 0 C5.1006 0.0023 10.2013 -0.0012 15.3019 -0.0039 C25.3605 -0.0082 35.419 -0.0072 45.4776 -0.0044 C53.8402 -0.0022 62.2028 -0.0022 70.5654 -0.0038 C71.7797 -0.004 72.9939 -0.0042 74.245 -0.0044 C76.7224 -0.0049 79.1997 -0.0054 81.6771 -0.0058 C110.7898 -0.0109 139.9024 -0.005 169.0151 0.0026 C181.4087 0.0059 193.8024 0.008 206.196 0.0101 C288.9059 0.0237 371.6159 0.0666 454.3259 0.1275 C458.8037 0.1307 463.2816 0.134 467.7595 0.1372 C540.3808 0.1894 613.0021 0.2573 685.6234 0.3697 C689.7605 0.3761 693.8976 0.3824 698.0347 0.3888 C700.7788 0.3931 703.5229 0.3973 706.267 0.4016 C726.7605 0.4332 747.2541 0.457 767.7476 0.4766 C791.0196 0.499 814.2916 0.5319 837.5635 0.5792 C850.5873 0.6055 863.6111 0.6236 876.635 0.6301 C885.3234 0.6353 894.0118 0.6514 902.7003 0.6764 C907.655 0.6904 912.6097 0.6996 917.5645 0.6957 C922.0691 0.6923 926.5734 0.7026 931.0779 0.724 C933.4657 0.7317 935.8535 0.7248 938.2413 0.7173 C949.8014 0.7943 949.8014 0.7943 954.649 2.5385 C958.9133 4.6909 961.9846 7.295 965.4324 10.5643 C969.2561 14.703 971.9718 19.2824 974.8035 24.1307 C976.3998 26.7189 978.0045 29.3019 979.616 31.8807 C980.4719 33.2562 981.3278 34.6316 982.2097 36.0487 C984.6059 39.8198 987.0908 43.5079 989.616 47.1932 C998.3704 60.2498 1005.7193 74.1832 1013.0935 88.0499 C1018.1753 97.5996 1023.3936 106.9305 1029.2647 116.0172 C1038.6725 130.6058 1047.1543 145.7713 1055.3984 161.0409 C1059.3182 168.2906 1063.393 175.4422 1067.5127 182.5797 C1070.5995 187.9516 1073.5246 193.375 1076.366 198.8807 C1079.873 205.6073 1083.7956 211.9033 1087.9771 218.2181 C1091.9413 224.2357 1095.5144 230.2635 1097.8035 237.1307 C1097.8435 240.1305 1097.8469 243.131 1097.8035 246.1307 C1096.4835 248.1107 1095.1635 250.0907 1093.8035 252.1307 C1087.5384 255.9389 1087.5384 255.9389 1084.4695 256.7399 C1081.4106 257.1883 1078.4252 257.3469 1075.3347 257.4471 C1074.0556 257.489 1072.7764 257.5309 1071.4585 257.5741 C1070.0873 257.6134 1068.7162 257.6527 1067.3035 257.6932 C1065.884 257.7364 1064.4645 257.7796 1063.002 257.8241 C1052.2784 258.1241 1041.5688 258.1681 1030.842 258.1114 C1022.6804 258.0838 1014.6183 258.4044 1006.4714 258.9042 C1001.0572 259.167 995.6608 259.2449 990.241 259.2557 C989.3678 259.2602 988.4946 259.2648 987.595 259.2694 C982.2279 259.2576 976.9177 259.0043 971.564 258.6304 C957.4001 257.8355 943.2197 257.9903 929.0381 258.0023 C924.6898 258.0048 920.3415 258.0015 915.9933 257.999 C908.3849 257.9954 900.7764 257.9955 893.168 257.9981 C881.8514 258.0019 870.5348 257.9999 859.2183 257.9969 C838.991 257.9916 818.7638 257.9921 798.5365 257.9949 C780.808 257.9975 763.0795 257.9981 745.351 257.9969 C744.7619 257.9969 744.7619 257.9969 741.7812 257.9967 C736.9983 257.9964 732.2154 257.9961 727.4325 257.9957 C682.5563 257.9927 637.6802 257.9954 592.804 258.0008 C553.0582 258.0056 513.3123 258.0052 473.5664 258.0004 C428.835 257.995 384.1035 257.9929 339.372 257.996 C334.5847 257.9963 329.7974 257.9966 325.0101 257.9969 C324.4208 257.997 324.4208 257.997 321.4385 257.9972 C303.7643 257.9983 286.09 257.997 268.4157 257.9944 C248.2533 257.9916 228.0908 257.9923 207.9283 257.9977 C197.6667 258.0004 187.4051 258.0015 177.1435 257.9981 C106.4895 257.9763 106.4895 257.9763 72.6991 258.4029 C70.0942 258.4346 67.4893 258.4619 64.8844 258.4843 C61.3625 258.5164 57.8415 258.5672 54.3199 258.6236 C53.3189 258.6295 52.3178 258.6355 51.2864 258.6417 C44.1913 258.7866 37.5575 259.9088 30.8035 262.1307 C26.8972 264.3573 26.8972 264.3573 23.8035 267.1307 C20.9597 270.6542 20.9597 270.6542 18.3035 274.5057 C12.9053 282.0676 7.8813 287.7048 0.3035 293.1307 C-6.9845 298.3563 -12.0035 303.6333 -17.0715 311.0057 C-23.6588 321.1607 -29.3431 331.673 -34.0618 342.8229 C-39.7025 356.0641 -47.1265 368.1752 -54.5754 380.4667 C-61.378 391.6933 -67.781 403.1065 -73.9465 414.6932 C-78.3199 422.8753 -82.789 430.9822 -87.4465 439.0057 C-91.7775 446.48 -95.7456 454.0702 -99.5513 461.8236 C-103.4062 469.6478 -107.6269 477.2371 -111.9123 484.8314 C-113.2339 487.1976 -114.5273 489.5773 -115.8137 491.9628 C-120.4203 500.4879 -125.1935 508.8217 -130.384 517.0057 C-136.5259 526.7157 -141.8876 536.7775 -147.2341 546.942 C-154.2756 560.2842 -161.7326 573.3861 -170.009 586.0057 C-175.0956 593.8611 -179.0086 602.434 -182.9543 610.9042 C-187.3952 620.2281 -192.6873 628.6222 -198.4121 637.2013 C-203.9634 645.5914 -208.7781 654.2601 -213.5012 663.1346 C-215.7607 667.371 -218.176 671.4803 -220.6965 675.5682 C-228.0712 687.6857 -234.6346 700.3686 -240.4775 713.2926 C-246.2188 725.9587 -253.6673 737.4647 -261.1965 749.1307 C-267.7869 759.3474 -273.7852 769.7602 -279.5103 780.4803 C-282.3615 785.8041 -285.2738 791.0268 -288.509 796.1307 C-293.9264 804.7262 -298.3222 813.8668 -302.4309 823.1503 C-307.895 835.3391 -314.5209 845.5116 -322.6487 856.0809 C-329.1958 864.7512 -333.7314 874.2453 -338.2734 884.0467 C-342.5707 893.1894 -347.7966 901.6088 -353.1965 910.1307 C-358.4522 918.6373 -363.3913 927.2685 -368.134 936.0682 C-372.3156 943.8254 -376.7529 951.3162 -381.5012 958.744 C-385.6135 965.3115 -389.27 972.1484 -393.0198 978.9264 C-396.2964 984.8219 -399.6703 990.5851 -403.3215 996.2557 C-408.4273 1004.2683 -412.7233 1012.6274 -417.0637 1021.0682 C-424.7355 1035.9788 -432.877 1050.6333 -441.1785 1065.2006 C-445.5004 1072.8185 -449.646 1080.5233 -453.759 1088.2557 C-458.6457 1097.4408 -463.6473 1106.537 -468.8513 1115.5458 C-472.8923 1122.5534 -476.7707 1129.6416 -480.6226 1136.7545 C-484.2775 1143.4879 -488.0316 1150.16 -491.8215 1156.8182 C-499.2954 1170.002 -506.664 1183.0771 -512.384 1197.1307 C-516.0226 1206.0258 -520.477 1213.4582 -526.1731 1221.162 C-533.2352 1230.7368 -539.4168 1240.357 -544.9905 1250.8675 C-547.0371 1254.7081 -549.1479 1258.5128 -551.259 1262.3182 C-551.4652 1262.6923 -551.4652 1262.6923 -552.5088 1264.5851 C-555.1893 1269.4182 -558.0284 1274.1258 -560.9465 1278.8182 C-566.0203 1287.1877 -569.4004 1295.9056 -572.5715 1305.1307 C-573.5669 1311.5009 -574.0159 1317.7251 -573.1965 1324.1307 C-570.4419 1334.0212 -566.015 1342.509 -560.634 1351.1932 C-559.1976 1353.5595 -557.7627 1355.9267 -556.3293 1358.2948 C-555.6258 1359.4514 -554.9223 1360.608 -554.1975 1361.7997 C-551.3722 1366.5031 -548.6896 1371.2814 -546.009 1376.0682 C-541.6552 1383.7914 -536.9558 1391.2178 -532.0557 1398.6041 C-527.5729 1405.413 -523.5558 1412.4297 -519.5842 1419.5455 C-516.4663 1425.0732 -513.1199 1430.2671 -509.4465 1435.4432 C-504.1345 1442.9774 -500.1784 1450.8393 -496.1965 1459.1307 C-491.1396 1469.1015 -485.715 1478.7515 -479.9004 1488.2928 C-477.275 1492.6152 -474.713 1496.9553 -472.2786 1501.3885 C-465.0021 1514.6379 -457.0115 1527.2746 -448.5308 1539.7782 C-443.2599 1547.6325 -438.8298 1555.3951 -435.1965 1564.1307 C-434.6139 1565.5307 -434.0312 1566.9306 -433.4309 1568.3729 C-432.9411 1569.5717 -432.4512 1570.7706 -431.9465 1572.0057 C-427.9261 1581.2563 -422.4659 1589.2884 -416.532 1597.4086 C-412.1895 1603.437 -408.6603 1609.6264 -405.3215 1616.2557 C-404.2698 1618.3009 -403.2164 1620.3451 -402.1614 1622.3885 C-401.6533 1623.375 -401.1453 1624.3615 -400.6218 1625.3778 C-394.6377 1636.936 -387.8687 1647.8419 -380.7161 1658.6996 C-374.7053 1667.8294 -369.0751 1677.1475 -363.6067 1686.6112 C-363.1637 1687.3738 -362.7206 1688.1365 -362.2642 1688.9222 C-361.0223 1691.0626 -359.7888 1693.2079 -358.5559 1695.3534 C-356.3216 1698.9305 -354.0707 1702.0477 -351.1965 1705.1307 C-346.884 1707.5057 -346.884 1707.5057 -343.1965 1709.1307 C-340.5565 1709.1307 -337.9165 1709.1307 -335.1965 1709.1307 C-331.8965 1707.4807 -328.5965 1705.8307 -325.1965 1704.1307 C-316.0939 1692.331 -309.3638 1679.3706 -302.572 1666.1656 C-297.1251 1655.5769 -291.4339 1645.208 -285.3686 1634.9606 C-280.8633 1627.3344 -276.5954 1619.6012 -272.3948 1611.8038 C-269.5215 1606.4927 -266.5333 1601.2856 -263.384 1596.1307 C-257.5329 1586.4843 -252.7511 1576.7741 -248.8215 1566.1932 C-244.4998 1554.8356 -238.2884 1545.1733 -231.4465 1535.1932 C-225.1566 1525.8755 -220.0184 1515.9519 -214.7454 1506.0355 C-209.7405 1496.6491 -204.7167 1487.3071 -198.8215 1478.4432 C-193.5977 1470.5011 -189.3902 1462.0708 -185.0442 1453.6307 C-180.3312 1444.4877 -175.3086 1435.6925 -169.509 1427.1932 C-164.5431 1419.8743 -160.2412 1412.2588 -155.946 1404.5314 C-153.0087 1399.2678 -149.9885 1394.1442 -146.634 1389.1307 C-137.9366 1375.8858 -131.2023 1361.3706 -124.4465 1347.0682 C-118.7042 1334.92 -112.1684 1323.5236 -104.8606 1312.2479 C-90.097 1289.4314 -77.1112 1266.1193 -65.0715 1241.7557 C-59.004 1229.482 -52.4826 1217.7154 -45.1965 1206.1307 C-34.5774 1189.2077 -25.6767 1171.3057 -16.884 1153.3807 C-11.3796 1142.3363 -5.3334 1131.7963 2.116 1121.9432 C8.5649 1113.3689 13.821 1104.1878 19.1804 1094.9076 C20.7372 1092.2441 22.3301 1089.6075 23.9441 1086.9784 C29.4418 1078.0186 34.4882 1069.0027 39.092 1059.5511 C42.2836 1053.0423 45.8081 1046.7938 49.4895 1040.5519 C53.2237 1034.1978 56.7552 1027.749 60.241 1021.2557 C64.2942 1013.7062 68.4411 1006.2298 72.741 998.8182 C81.8237 983.0777 90.3729 966.9919 97.616 950.3182 C101.9918 940.313 107.5439 931.5638 113.991 922.7753 C123.8123 909.2795 131.4251 895.0836 138.8035 880.1307 C139.5831 878.5589 140.363 876.9873 141.1433 875.4159 C141.7943 874.1049 142.4453 872.7939 143.116 871.4432 C148.7547 860.1182 155.0261 849.2649 161.866 838.6307 C166.3178 831.6926 170.219 824.6666 173.8113 817.2362 C179.2018 806.1275 184.9565 795.255 191.5535 784.8143 C194.5377 779.9287 197.3199 774.9382 200.116 769.9432 C204.0165 762.9871 207.9864 756.103 212.1785 749.3182 C222.3253 732.8835 231.9496 716.2264 240.4622 698.8834 C245.0968 689.4535 250.0877 680.2482 255.1877 671.0634 C256.9008 667.9541 258.5819 664.829 260.2605 661.701 C266.7642 649.6659 273.6199 637.9753 281.1785 626.5682 C281.9031 625.4691 282.6277 624.3699 283.3743 623.2374 C287.9854 616.4007 292.8689 609.887 298.8035 604.1307 C303.3654 601.2795 307.7108 599.6636 312.9612 598.5441 C319.1829 597.6392 325.4864 597.821 331.7607 597.8119 C333.3528 597.8018 334.9449 597.7918 336.5852 597.7814 C340.9452 597.7542 345.3051 597.739 349.6652 597.726 C354.2832 597.7102 358.9012 597.6835 363.5192 597.658 C371.3143 597.6165 379.1095 597.582 386.9048 597.5526 C397.7187 597.5118 408.5326 597.459 419.3464 597.4033 C441.832 597.2883 464.3177 597.2016 486.8035 597.1307 C488.208 597.1261 489.6125 597.1214 491.0596 597.1167 C498.1415 597.0935 505.2234 597.0745 512.3054 597.0649 C514.2364 597.062 516.1674 597.0579 518.0985 597.0526 C557.2357 596.9513 557.2357 596.9513 569.0339 601.2089 C570.6291 601.8361 572.2212 602.4717 573.8035 603.1307 C577.6785 607.8807 577.6785 607.8807 578.8035 610.1307 C578.8035 613.4307 578.8035 616.7307 578.8035 620.1307 C573.8048 630.92 567.7383 640.7764 561.3279 650.7533 C553.6175 662.7783 546.6284 675.0618 539.9229 687.6759 C536.0392 694.944 531.9238 701.9177 527.4793 708.8573 C518.4931 723.0321 510.4394 737.8246 502.5535 752.6307 C495.6708 765.5256 488.4423 778.0136 480.0198 789.9672 C472.7325 800.3268 466.908 811.1127 461.2014 822.4061 C458.3513 827.9611 455.2727 833.3884 452.2136 838.83 C450.6187 841.676 449.0428 844.5327 447.4871 847.4003 C442.8333 855.9487 437.9002 864.2289 432.6785 872.4432 C426.9826 881.4148 421.7026 890.5508 416.616 899.8807 C409.3141 913.2717 401.8051 926.4745 393.4793 939.2596 C385.4342 951.6291 378.2935 964.2815 371.4128 977.3339 C365.1054 989.2838 358.3607 1000.984 351.3035 1012.5057 C347.5809 1018.6429 344.2672 1024.9369 340.991 1031.3182 C334.5379 1043.8569 327.4603 1055.9492 319.8035 1067.7909 C318.8028 1069.3412 317.8028 1070.892 316.8035 1072.4432 C316.307 1073.2131 315.8106 1073.983 315.2991 1074.7762 C311.4373 1080.8743 308.1606 1087.1815 304.9285 1093.6307 C300.6242 1102.1853 295.7092 1109.7113 289.8721 1117.288 C285.5233 1122.9839 282.0528 1128.7478 278.697 1135.09 C275.2974 1141.4385 271.4234 1147.3926 267.4285 1153.3807 C260.1931 1164.3017 253.8896 1175.539 247.8035 1187.1307 C235.7523 1210.03 223.5103 1232.5441 209.3464 1254.2089 C198.4458 1271.0204 188.5795 1288.546 180.491 1306.8807 C177.2282 1314.2416 173.9278 1320.8618 168.8035 1327.1307 C158.5102 1339.9818 150.5452 1352.4273 143.5535 1367.3182 C139.4271 1376.0844 135.107 1384.2717 129.5393 1392.1971 C124.8793 1398.8581 120.778 1405.8011 116.6785 1412.8182 C112.4845 1419.9808 108.2925 1427.0843 103.616 1433.9432 C93.9962 1448.0672 85.7571 1463.0505 77.6792 1478.0929 C69.4203 1493.466 60.7597 1508.5927 51.8191 1523.5782 C47.4938 1530.8675 43.3848 1538.2651 39.3035 1545.6932 C34.8612 1553.7717 30.2971 1561.7159 25.366 1569.5057 C20.1879 1577.691 15.4464 1586.0688 10.8035 1594.5682 C2.3227 1610.0891 -6.4642 1625.3633 -16.009 1640.2557 C-25.2844 1654.7494 -33.6114 1669.8347 -41.9426 1684.8846 C-52.162 1703.3313 -52.162 1703.3313 -57.9465 1712.0682 C-65.3039 1723.1906 -71.5057 1734.8612 -77.634 1746.6932 C-80.9584 1753.0124 -84.6046 1758.9737 -88.55 1764.921 C-99.1015 1780.9768 -108.3887 1797.8971 -117.8821 1814.5929 C-123.0017 1823.5812 -128.2786 1832.475 -133.5598 1841.369 C-135.1838 1844.1093 -136.8008 1846.8536 -138.4153 1849.5995 C-145.1028 1860.9671 -151.905 1872.2591 -158.7747 1883.5175 C-180.2981 1918.8001 -180.2981 1918.8001 -188.634 1936.6932 C-193.4226 1946.9102 -199.0485 1956.0199 -205.6707 1965.1669 C-214.4365 1977.2982 -221.7806 1989.3671 -227.6965 2003.1932 C-232.0952 2013.4402 -237.5261 2022.7525 -243.8215 2031.9432 C-248.9877 2039.5658 -253.424 2047.5246 -257.8738 2055.5814 C-262.0689 2063.1646 -266.4337 2070.617 -270.9382 2078.0196 C-274.1727 2083.3577 -277.2221 2088.7693 -280.1965 2094.2557 C-283.5185 2100.3656 -287.137 2106.1478 -291.0715 2111.8807 C-295.9957 2119.0801 -300.2401 2126.4921 -304.3467 2134.1822 C-313.4525 2151.1711 -323.4016 2167.7213 -333.509 2184.1307 C-333.7694 2184.5546 -333.7694 2184.5546 -335.0869 2186.6993 C-337.5761 2190.7028 -340.0329 2194.6251 -343.1965 2198.1307 C-346.9465 2200.4432 -346.9465 2200.4432 -350.1965 2202.1307 C-353.1665 2202.1307 -356.1365 2202.1307 -359.1965 2202.1307 C-362.5277 2200.604 -365.3913 2198.9204 -368.0207 2196.3417 C-378.5863 2183.8048 -386.0599 2168.4332 -394.0564 2154.2035 C-402.7353 2138.7981 -411.4778 2123.3705 -421.4465 2108.7557 C-427.9559 2099.2102 -433.5785 2089.2192 -439.1965 2079.1307 C-440.3563 2077.0563 -441.5164 2074.9821 -442.677 2072.9081 C-442.9718 2072.3812 -442.9718 2072.3812 -444.4634 2069.715 C-444.7597 2069.1854 -444.7597 2069.1854 -446.259 2066.5057 C-446.5543 2065.9778 -446.5543 2065.9778 -448.0488 2063.3063 C-462.0555 2038.2904 -462.0555 2038.2904 -469.5715 2026.8807 C-475.7617 2017.4451 -481.2412 2007.6451 -486.72 1997.7841 C-488.7364 1994.1606 -490.7799 1990.5526 -492.8215 1986.9432 C-495.2192 1982.689 -497.5871 1978.4214 -499.9114 1974.1268 C-511.4886 1952.7597 -511.4886 1952.7597 -519.052 1943.7167 C-527.4405 1933.621 -532.942 1922.9413 -538.4661 1911.0538 C-542.4526 1902.539 -546.7794 1894.4775 -551.759 1886.5057 C-557.2661 1877.6735 -561.9714 1868.6819 -566.384 1859.2557 C-571.4695 1848.4202 -577.0589 1838.3708 -583.6858 1828.4174 C-591.9374 1815.9279 -599.411 1803.075 -606.4597 1789.8756 C-612.988 1777.696 -620.1814 1766.0553 -627.9465 1754.6307 C-635.0698 1744.1351 -641.239 1733.1011 -647.5012 1722.079 C-648.9402 1719.5765 -650.4086 1717.1005 -651.9153 1714.6385 C-657.1197 1706.1054 -661.5057 1697.4207 -665.759 1688.3807 C-670.1995 1678.9865 -674.7356 1670.3209 -681.1965 1662.1307 C-691.9883 1648.4368 -700.1451 1635.0449 -707.009 1618.9432 C-716.207 1597.3863 -728.6873 1577.9853 -741.5872 1558.4862 C-750.7197 1544.6691 -758.9808 1530.9662 -766.0464 1515.9723 C-773.8631 1499.4108 -782.7748 1483.761 -792.6919 1468.3729 C-797.1043 1461.4524 -800.9717 1454.2828 -804.835 1447.0455 C-808.4186 1440.3941 -812.4176 1434.1796 -816.7043 1427.955 C-820.1167 1422.7188 -823.0497 1417.2648 -826.0078 1411.7633 C-829.1738 1405.9034 -832.5448 1400.2174 -836.0715 1394.5682 C-842.6637 1383.9189 -847.6278 1373.4689 -850.1965 1361.1307 C-850.9546 1355.4102 -850.5698 1350.2262 -849.5598 1344.5565 C-843.6176 1320.9522 -829.6497 1298.9225 -818.2043 1277.6737 C-814.6672 1271.0889 -811.3295 1264.4183 -808.0515 1257.701 C-805.7322 1253.2371 -803.0258 1249.1479 -800.177 1245.0096 C-794.1406 1236.2348 -789.0215 1227.0135 -784.009 1217.6307 C-778.7818 1207.8548 -773.1665 1198.4124 -767.2629 1189.0331 C-763.5449 1183.1238 -760.0259 1177.1065 -756.509 1171.076 C-754.3571 1167.4046 -752.1586 1163.7661 -749.9465 1160.1307 C-745.3097 1152.4272 -740.935 1144.5836 -736.5586 1136.7299 C-732.8341 1130.047 -729.0702 1123.3895 -725.259 1116.7557 C-714.9328 1098.7185 -704.8787 1080.5921 -695.4465 1062.0682 C-688.5428 1048.5315 -681.4808 1035.3092 -672.509 1023.0057 C-666.4369 1014.4963 -662.3915 1004.6775 -657.9622 995.2479 C-651.4822 981.5252 -644.856 968.6014 -636.1965 956.1307 C-630.4429 947.5248 -625.2673 938.7413 -620.3462 929.6439 C-617.5251 924.4578 -614.5639 919.4216 -611.384 914.4432 C-601.6829 899.1767 -593.2609 883.1187 -584.6592 867.2167 C-581.2132 860.8881 -577.5903 854.6848 -573.884 848.5057 C-568.794 840.0033 -563.9969 831.3678 -559.3215 822.6307 C-558.7153 821.4981 -558.109 820.3655 -557.4844 819.1986 C-551.5697 808.0701 -545.8593 796.8726 -540.8215 785.3182 C-534.6551 771.4735 -527.7341 758.5898 -518.9856 746.1659 C-514.0522 739.0283 -509.6384 731.5791 -505.1965 724.1307 C-504.4996 722.9638 -503.8027 721.7969 -503.0847 720.5946 C-497.4316 711.1206 -491.8084 701.6292 -486.1965 692.1307 C-485.8639 691.5689 -485.8639 691.5689 -484.1804 688.7255 C-477.1943 676.914 -470.4386 665.0117 -463.949 652.92 C-459.5178 644.6749 -454.91 636.5428 -450.2395 628.4315 C-447.5259 623.7179 -444.8538 618.9817 -442.188 614.2408 C-437.3646 605.665 -432.4748 597.1463 -427.3723 588.7323 C-424.5128 583.999 -421.7171 579.229 -418.9241 574.4564 C-416.2524 569.8993 -413.5179 565.3854 -410.759 560.8807 C-407.1957 554.9753 -403.9754 548.947 -400.8215 542.8182 C-397.0891 535.5672 -393.0911 528.6123 -388.7417 521.7069 C-383.2049 512.7585 -378.4279 503.3963 -373.5349 494.0863 C-369.0262 485.5234 -364.3758 477.0788 -359.5044 468.7181 C-355.7568 462.2369 -352.3387 455.6161 -348.9465 448.9432 C-344.3269 439.8784 -339.2852 431.1891 -333.884 422.5682 C-327.1446 411.8001 -321.1747 401.0736 -316.1457 389.3846 C-311.5796 378.8279 -306.3892 369.2661 -300.1028 359.6346 C-294.6873 351.3298 -290.0387 342.576 -285.3606 333.8417 C-280.7597 325.2772 -276.1456 316.8552 -270.759 308.7557 C-264.4824 299.2779 -259.2419 289.3074 -253.8923 279.2865 C-246.5539 265.6302 -238.8864 252.1825 -230.8215 238.9432 C-224.5115 228.5729 -218.7637 217.9621 -213.1094 207.2228 C-207.3635 196.3441 -201.2373 185.7308 -194.9705 175.1464 C-191.7954 169.7488 -188.6887 164.3118 -185.5715 158.8807 C-181.6942 152.1253 -177.7776 145.4074 -173.6926 138.7755 C-167.225 128.2535 -161.6011 117.3639 -155.9912 106.3641 C-150.4036 95.4377 -144.5546 84.7863 -137.8254 74.5096 C-132.3569 66.1013 -127.9017 57.5764 -123.634 48.5057 C-117.5522 35.612 -111.2785 23.6992 -101.3801 13.2518 C-98.1249 10.0898 -95.0365 7.5907 -91.1965 5.1307 C-83.7521 2.2133 -76.9424 1.0465 -68.9977 0.8189 C-68.282 0.7982 -68.282 0.7982 -64.6599 0.6937 C-63.8834 0.6743 -63.8834 0.6743 -59.9543 0.5763 C-58.3135 0.5342 -56.6727 0.4921 -54.9822 0.4487 C-36.6561 0.0041 -18.3304 -0.0124 0 0 Z " fill="#2d3d50" transform="translate(1740.1965295374393,266.8692666441202)"/>
    <path d="M0 0 C8.9104 -0.012 17.8209 -0.0207 26.7313 -0.0281 C32.2192 -0.0328 37.7071 -0.0391 43.195 -0.0504 C62.3015 -0.0887 81.405 -0.0509 100.5079 0.3506 C101.9751 0.3728 103.4422 0.395 104.9538 0.4179 C112.6671 0.6165 119.1493 1.3912 126.4129 4.0336 C128.0629 6.0136 129.7129 7.9936 131.4129 10.0336 C131.4129 13.6636 131.4129 17.2936 131.4129 21.0336 C126.4916 31.1176 121.312 40.9628 115.739 50.7021 C114.2472 53.3248 112.7746 55.9578 111.3035 58.5922 C106.5068 67.1651 101.71 75.6938 96.4129 83.9711 C92.3834 90.3004 88.8051 96.7881 85.2879 103.4086 C80.0398 113.2716 74.3467 122.7747 68.4283 132.2477 C63.8614 139.5905 59.531 147.0273 55.3504 154.5961 C50.1272 164.0523 44.6824 173.3439 39.0906 182.5863 C32.6448 193.2583 26.4419 204.0652 20.2317 214.8754 C17.3517 219.8761 14.4471 224.8624 11.5379 229.8461 C10.9712 230.817 10.4045 231.7879 9.8206 232.7882 C5.9369 239.4363 2.0405 246.0769 -1.8576 252.7165 C-13.1682 271.9876 -24.4368 291.2695 -35.2121 310.8461 C-40.1109 319.7314 -45.1964 328.4449 -50.5966 337.0339 C-57.2142 347.5677 -63.4979 358.2992 -69.8098 369.018 C-71.3248 371.5884 -72.8447 374.1558 -74.3684 376.7211 C-79.0383 384.6055 -83.59 392.5499 -88.0871 400.5336 C-92.9582 409.1794 -97.8989 417.7762 -102.968 426.308 C-104.9842 429.702 -106.9964 433.0984 -109.009 436.4945 C-115.9828 448.2558 -122.9607 460.0137 -130.0246 471.7211 C-134.3695 478.9317 -138.5733 486.2148 -142.7307 493.5348 C-151.9733 509.7811 -161.4554 525.8973 -171.1184 541.8969 C-173.9089 546.5728 -176.6547 551.2738 -179.4004 555.9762 C-185.9304 567.159 -192.5287 578.2921 -199.2746 589.3461 C-211.7714 609.8371 -223.7415 630.5874 -235.1965 651.6781 C-243.049 666.0868 -251.2424 680.1849 -259.9192 694.1117 C-265.6795 703.3673 -271.0654 712.8305 -276.447 722.3095 C-290.5723 747.1885 -290.5723 747.1885 -297.9738 758.807 C-302.1137 765.5026 -305.9926 772.3467 -309.9062 779.1762 C-313.8505 786.0504 -317.8604 792.8772 -321.9621 799.6586 C-328.3238 810.2089 -334.4142 820.8728 -340.1379 831.7836 C-347.7529 846.2776 -355.6933 860.3973 -364.384 874.2719 C-369.0973 881.8063 -373.6269 889.4463 -378.1496 897.0961 C-383.2474 905.7175 -388.3582 914.3289 -393.542 922.8988 C-399.0689 932.0394 -404.4214 941.2464 -409.5871 950.5961 C-414.144 958.8409 -418.9141 966.8928 -423.9621 974.8461 C-430.079 984.487 -435.8233 994.297 -441.4502 1004.2309 C-446.405 1012.9778 -451.4361 1021.6763 -456.5246 1030.3461 C-456.886 1030.9618 -456.886 1030.9618 -458.7146 1034.0778 C-462.2215 1040.0425 -465.7522 1045.9905 -469.3371 1051.9086 C-473.6467 1059.0411 -477.7121 1066.3063 -481.7934 1073.5707 C-484.7939 1078.8998 -487.8438 1084.1842 -491.0246 1089.4086 C-494.9564 1095.8848 -498.655 1102.4763 -502.3371 1109.0961 C-508.3186 1119.8398 -514.5047 1130.4432 -520.7932 1141.0092 C-524.2257 1146.796 -527.6237 1152.6031 -531.0246 1158.4086 C-531.7474 1159.6423 -532.4701 1160.876 -533.2148 1162.1471 C-535.3397 1165.7755 -537.4637 1169.4044 -539.5871 1173.0336 C-540.2076 1174.094 -540.8282 1175.1544 -541.4675 1176.247 C-547.3224 1186.2568 -553.1572 1196.2773 -558.9345 1206.3322 C-566.0498 1218.7114 -573.2976 1231.0069 -580.6006 1243.2763 C-587.6681 1255.154 -594.6552 1267.0763 -601.5871 1279.0336 C-602.1898 1280.0715 -602.7924 1281.1093 -603.4133 1282.1786 C-610.2349 1293.9319 -616.9877 1305.7166 -623.5871 1317.5961 C-628.8567 1327.0758 -634.3628 1336.3885 -639.9839 1345.6632 C-644.3124 1352.8334 -648.4648 1360.0833 -652.5246 1367.4086 C-659.2827 1379.5947 -666.3741 1391.5669 -673.5075 1403.536 C-684.0791 1421.3158 -694.4409 1439.2136 -704.6809 1457.186 C-713.9295 1473.4147 -723.3017 1489.5717 -732.7378 1505.6921 C-735.9375 1511.1688 -739.0757 1516.6724 -742.1496 1522.2211 C-745.9288 1528.9849 -749.9723 1535.5516 -754.0786 1542.1188 C-761.6943 1554.3439 -768.9669 1566.7759 -776.2949 1579.1747 C-778.6155 1583.0813 -780.961 1586.972 -783.3098 1590.8617 C-786.78 1596.6379 -790.0939 1602.4692 -793.2746 1608.4086 C-802.6236 1625.6907 -812.1991 1642.836 -822.2297 1659.7323 C-823.7725 1662.3479 -825.2981 1664.9731 -826.8215 1667.6 C-834.3706 1680.6149 -842.0956 1693.5076 -849.945 1706.3432 C-858.2266 1719.9118 -866.288 1733.6078 -874.3069 1747.3329 C-877.9052 1753.4855 -881.5291 1759.6184 -885.2343 1765.7072 C-891.2205 1775.5471 -896.7845 1785.591 -902.3117 1795.695 C-908.4679 1806.9087 -914.9143 1817.9375 -921.4192 1828.9516 C-924.8073 1834.6907 -928.1404 1840.4593 -931.4524 1846.2426 C-937.5463 1856.8833 -943.8076 1867.3886 -950.3176 1877.7797 C-952.6711 1881.5412 -954.9785 1885.3274 -957.2629 1889.1313 C-957.8803 1890.1571 -958.4977 1891.183 -959.1338 1892.2399 C-960.3123 1894.2019 -961.4866 1896.1664 -962.6557 1898.1339 C-967.1441 1905.5887 -971.8317 1912.5117 -978.2746 1918.4086 C-981.349 1920.5296 -984.2139 1921.7084 -987.8178 1922.6716 C-995.5942 1924.5003 -1003.255 1924.4659 -1011.2092 1924.4501 C-1012.8336 1924.4587 -1014.458 1924.4673 -1016.1316 1924.4761 C-1020.5554 1924.4993 -1024.9791 1924.5046 -1029.403 1924.5068 C-1034.0573 1924.5125 -1038.7116 1924.5358 -1043.3659 1924.5574 C-1052.1827 1924.5958 -1060.9995 1924.6201 -1069.8163 1924.6385 C-1085.5787 1924.6719 -1101.3409 1924.7301 -1117.1032 1924.7925 C-1122.6216 1924.8138 -1128.14 1924.8292 -1133.6584 1924.8393 C-1136.2735 1924.8447 -1138.8887 1924.8522 -1141.5038 1924.8605 C-1144.6708 1924.8704 -1147.8378 1924.8769 -1151.0047 1924.8791 C-1159.3675 1924.911 -1167.6601 1925.2076 -1176.0019 1925.8093 C-1188.9113 1926.6169 -1201.912 1925.8734 -1214.8227 1925.3439 C-1216.8827 1925.2617 -1218.943 1925.1852 -1221.0034 1925.1144 C-1224.028 1925.0103 -1227.0516 1924.8891 -1230.0754 1924.7641 C-1230.9829 1924.7358 -1231.8905 1924.7075 -1232.8255 1924.6784 C-1239.1678 1924.3888 -1244.5636 1923.0507 -1250.5871 1921.0336 C-1251.4121 1920.0436 -1251.4121 1920.0436 -1255.5871 1915.0336 C-1255.5871 1911.7336 -1255.5871 1908.4336 -1255.5871 1905.0336 C-1248.3678 1890.0765 -1248.3678 1890.0765 -1243.9621 1883.0961 C-1240.0905 1876.9559 -1236.5069 1870.6785 -1232.9621 1864.3461 C-1232.3612 1863.2732 -1231.7602 1862.2003 -1231.1411 1861.0949 C-1228.0661 1855.5754 -1225.0426 1850.0343 -1222.0988 1844.4438 C-1215.9097 1832.7015 -1209.4217 1821.4164 -1202.061 1810.3673 C-1194.079 1798.3532 -1186.9101 1785.9564 -1180.6548 1772.9574 C-1175.7074 1762.6833 -1170.0054 1753.3407 -1163.5695 1743.9294 C-1155.8742 1732.6412 -1149.2414 1720.8449 -1142.7785 1708.8188 C-1136.5426 1697.2254 -1129.9531 1685.9249 -1123.0788 1674.6972 C-1111.9458 1656.4905 -1101.4851 1637.93 -1091.218 1619.224 C-1086.9983 1611.5486 -1082.6792 1603.9588 -1078.1926 1596.436 C-1075.4976 1591.9095 -1072.8832 1587.3377 -1070.2634 1582.7675 C-1061.9235 1568.2249 -1053.4063 1553.7865 -1044.427 1539.6274 C-1039.9709 1532.5885 -1036.0512 1525.3261 -1032.1496 1517.9711 C-1025.7828 1505.9892 -1018.8565 1494.4177 -1011.759 1482.8578 C-1007.8722 1476.5243 -1004.0772 1470.1422 -1000.3371 1463.7211 C-999.7694 1462.7467 -999.2016 1461.7724 -998.6167 1460.7685 C-995.7992 1455.9116 -993.0197 1451.036 -990.2863 1446.1313 C-984.0823 1435.0012 -977.5822 1424.2104 -970.5676 1413.5727 C-963.6712 1403.1096 -957.6061 1392.2703 -951.7121 1381.2211 C-944.4547 1367.6217 -936.5998 1354.6136 -928.1496 1341.7211 C-921.847 1332.0788 -916.1993 1322.0891 -910.5871 1312.0336 C-909.9829 1310.9513 -909.3786 1309.8689 -908.7561 1308.7538 C-904.3516 1300.8553 -899.9675 1292.9455 -895.5871 1285.0336 C-892.706 1279.8356 -889.8195 1274.6406 -886.9284 1269.4482 C-885.9604 1267.7056 -884.9949 1265.9616 -884.031 1264.2167 C-874.5585 1247.0702 -864.6117 1230.2826 -854.2395 1213.6664 C-845.4433 1199.5659 -837.0995 1185.2611 -829.0988 1170.6938 C-821.3499 1156.5989 -813.2777 1142.7665 -804.8723 1129.0531 C-800.5413 1121.9831 -796.3039 1114.8598 -792.0871 1107.7211 C-791.7515 1107.1532 -791.7515 1107.1532 -790.0532 1104.2795 C-788.7877 1102.138 -787.5223 1099.9965 -786.257 1097.8549 C-782.7303 1091.8965 -779.1578 1085.9657 -775.5871 1080.0336 C-774.6233 1078.4283 -773.6598 1076.8228 -772.6965 1075.2172 C-772.1878 1074.3693 -771.6791 1073.5214 -771.155 1072.6479 C-770.1107 1070.9066 -769.0667 1069.165 -768.0232 1067.4233 C-765.7975 1063.7098 -763.5667 1060.0001 -761.3137 1056.3031 C-756.051 1047.6461 -751.0897 1038.838 -746.1618 1029.988 C-741.2598 1021.1968 -736.2431 1012.4762 -731.1941 1003.769 C-726.9162 996.3771 -722.7326 988.9379 -718.5871 981.4711 C-712.1139 969.8351 -705.2883 958.4301 -698.3967 947.0385 C-694.9853 941.3736 -691.6351 935.6727 -688.2834 929.9723 C-685.7786 925.7185 -683.2579 921.4777 -680.6731 917.2719 C-674.7075 907.5386 -669.2076 897.642 -663.8996 887.5336 C-656.653 873.7545 -648.735 860.4848 -640.5564 847.2436 C-637.594 842.4147 -634.7091 837.5416 -631.8371 832.6586 C-631.3139 831.7693 -630.7907 830.88 -630.2517 829.9638 C-629.2123 828.1962 -628.1732 826.4285 -627.1345 824.6606 C-625.5824 822.0257 -624.0218 819.3961 -622.4582 816.768 C-616.3686 806.5218 -610.4044 796.2143 -604.5246 785.8461 C-600.0246 777.9194 -595.4596 770.0729 -590.5246 762.4086 C-580.1108 746.2339 -570.8603 729.332 -561.4289 712.5732 C-557.0002 704.7202 -552.4543 696.9389 -547.8921 689.163 C-543.6556 681.9204 -539.5382 674.6175 -535.4621 667.2836 C-530.8758 659.0378 -526.1583 650.8974 -521.2619 642.8324 C-516.9584 635.7173 -512.8252 628.5103 -508.7121 621.2836 C-498.8792 604.0191 -489.0014 586.8083 -478.4765 569.9545 C-470.6605 557.395 -463.3189 544.5516 -455.966 531.7172 C-454.736 529.5724 -453.5055 527.4279 -452.2746 525.2836 C-451.6573 524.2082 -451.04 523.1328 -450.404 522.0248 C-445.7575 513.9695 -440.9474 506.0238 -436.0871 498.0961 C-426.7228 482.7942 -417.9672 467.1711 -409.5481 451.3305 C-402.4471 438.0164 -394.5347 425.3778 -386.32 412.7245 C-382.583 406.9216 -379.0931 400.9775 -375.5871 395.0336 C-374.3863 393.0343 -373.1844 391.0357 -371.9817 389.0375 C-365.2006 377.7327 -358.6171 366.38 -352.4621 354.7211 C-347.6929 345.7016 -342.5603 337.0719 -336.997 328.5231 C-332.0999 320.9533 -327.5171 313.2248 -323.0246 305.4086 C-322.3577 304.2589 -321.6908 303.1092 -321.0036 301.9247 C-316.2946 293.6668 -311.9037 285.3001 -309.5871 276.0336 C-309.3371 272.7211 -309.3371 272.7211 -309.5871 269.0336 C-311.0871 265.0961 -311.0871 265.0961 -312.5871 262.0336 C-318.8477 258.2281 -318.8477 258.2281 -321.9288 257.4175 C-324.9547 256.9805 -327.8752 256.8712 -330.933 256.8287 C-332.2168 256.8089 -333.5006 256.789 -334.8232 256.7686 C-336.2268 256.7519 -337.6303 256.7353 -339.0764 256.7182 C-339.819 256.7078 -339.819 256.7078 -343.5768 256.6553 C-347.6736 256.6001 -351.7703 256.5499 -355.8672 256.5028 C-358.475 256.4726 -361.0828 256.4409 -363.6906 256.4089 C-402.7805 255.9341 -441.8679 255.931 -480.96 255.9936 C-490.8932 256.009 -500.8263 256.0163 -510.7595 256.0229 C-528.4762 256.0346 -546.1929 256.0495 -563.9096 256.068 C-564.9556 256.0691 -566.0016 256.0702 -567.0793 256.0713 C-578.8204 256.0837 -590.5615 256.0973 -602.3026 256.1126 C-602.8357 256.1133 -602.8357 256.1133 -605.5332 256.1169 C-607.686 256.1197 -609.8387 256.1225 -611.9915 256.1253 C-612.5238 256.126 -612.5238 256.126 -615.2173 256.1296 C-615.7488 256.1303 -615.7488 256.1303 -618.4389 256.1338 C-636.1905 256.1568 -653.9422 256.1721 -671.6938 256.1811 C-682.5609 256.1869 -693.428 256.1992 -704.295 256.2201 C-711.7026 256.2338 -719.1102 256.2403 -726.5178 256.2411 C-730.7756 256.2418 -735.0332 256.2468 -739.291 256.2586 C-743.9183 256.2708 -748.5455 256.2706 -753.1729 256.2674 C-754.4943 256.2739 -755.8156 256.2804 -757.177 256.2871 C-779.0898 256.2286 -779.0898 256.2286 -788.7794 252.9552 C-792.707 251.2095 -795.5128 249.1005 -798.7121 246.2211 C-807.5158 234.6797 -812.1587 219.8068 -817.0824 206.3142 C-819.0285 200.9861 -821.0083 195.6705 -822.9856 190.3539 C-823.3786 189.2953 -823.7717 188.2368 -824.1767 187.1461 C-832.3589 165.1619 -841.3231 143.5028 -850.5534 121.9408 C-854.6418 112.3604 -858.5014 102.7114 -862.257 92.9965 C-865.9052 83.6239 -869.7863 74.3567 -873.7137 65.0988 C-876.6875 58.0838 -879.64 51.0599 -882.5871 44.0336 C-883.0804 42.8586 -883.5736 41.6836 -884.0818 40.4731 C-885.2734 37.6061 -886.4374 34.7301 -887.5871 31.8461 C-888.1852 30.3676 -888.7834 28.889 -889.3996 27.3656 C-890.8677 22.0099 -890.7969 17.5721 -890.5871 12.0336 C-889.114 9.2425 -887.6374 7.0839 -885.3996 4.8461 C-882.5871 3.0336 -882.5871 3.0336 -879.2819 1.9367 C-873.032 0.7345 -867.0084 0.7542 -860.6581 0.7719 C-859.2492 0.7679 -857.8403 0.7639 -856.3887 0.7598 C-851.643 0.7488 -846.8974 0.752 -842.1517 0.7551 C-838.7233 0.7512 -835.2948 0.7443 -831.8663 0.7376 C-824.3973 0.7245 -816.9282 0.7187 -809.4592 0.7178 C-798.3472 0.7164 -787.2353 0.7037 -776.1233 0.6885 C-757.4041 0.6634 -738.6849 0.6475 -719.9656 0.637 C-701.3585 0.6264 -682.7513 0.6118 -664.1442 0.5917 C-663.5644 0.591 -663.5644 0.591 -660.6304 0.5879 C-654.739 0.5815 -648.8476 0.5751 -642.9561 0.5686 C-601.1563 0.5229 -559.3565 0.4865 -517.5566 0.4555 C-477.2125 0.4255 -436.8685 0.3912 -396.5244 0.351 C-395.2888 0.3498 -394.0531 0.3485 -392.7801 0.3473 C-381.5957 0.3361 -370.4113 0.3249 -359.2269 0.3137 C-295.4165 0.2495 -231.6061 0.1884 -167.7957 0.1348 C-167.2498 0.1343 -167.2498 0.1343 -164.4873 0.132 C-140.357 0.1118 -116.2267 0.0929 -92.0964 0.0774 C-91.1169 0.0767 -90.1375 0.0761 -89.1283 0.0755 C-80.5035 0.0699 -71.8787 0.0644 -63.2539 0.0592 C-42.1693 0.0463 -21.0846 0.0287 0 0 Z " fill="#2d3d50" transform="translate(2700.5871244072914,566.9663923978806)"/>
    <path d="M0 0 C17.3816 0.5819 34.7359 0.7023 52.1257 0.676 C55.3227 0.675 58.5198 0.6744 61.7168 0.6743 C68.594 0.6733 75.4712 0.6687 82.3484 0.6615 C92.5748 0.6508 102.8012 0.6461 113.0276 0.6427 C130.2438 0.6367 147.46 0.6264 164.6762 0.6138 C189.2676 0.5959 213.8591 0.5865 238.4506 0.5789 C248.3406 0.5758 258.2307 0.5724 268.1207 0.569 C269.2191 0.5686 270.3174 0.5683 271.449 0.5679 C297.5253 0.5589 323.6016 0.5473 349.6779 0.5348 C350.8173 0.5342 351.9567 0.5337 353.1307 0.5331 C379.7461 0.5204 406.3614 0.5063 432.9768 0.4901 C434.1238 0.4894 435.2707 0.4887 436.4524 0.488 C442.2371 0.4845 448.0218 0.481 453.8065 0.4774 C454.95 0.4768 456.0934 0.4761 457.2715 0.4753 C459.5795 0.4739 461.8875 0.4725 464.1955 0.4711 C502.3224 0.4479 540.4493 0.4314 578.5762 0.4224 C583.9579 0.4212 589.3397 0.4198 594.7214 0.4184 C595.7804 0.4181 596.8394 0.4178 597.9306 0.4175 C614.9634 0.4128 631.9962 0.4006 649.0291 0.3855 C666.1295 0.3704 683.2299 0.3624 700.3303 0.3617 C710.4857 0.361 720.6412 0.3548 730.7966 0.3404 C738.378 0.3304 745.9594 0.3307 753.5408 0.3352 C756.6079 0.3353 759.675 0.3321 762.7422 0.3251 C766.9098 0.3161 771.0772 0.3195 775.2449 0.3259 C776.4361 0.3203 777.6272 0.3148 778.8545 0.3091 C786.6192 0.3384 794.1638 0.9532 801.7721 2.5692 C806.2713 4.3046 809.3863 6.2619 813.1471 9.2567 C822.7495 19.5711 828.7925 34.2222 835.381 46.5575 C839.3047 53.8933 843.3347 61.1573 847.4596 68.3817 C852.0285 76.3904 856.3835 84.4817 860.6176 92.6717 C864.4539 100.0532 868.5361 107.2791 872.6615 114.502 C876.9368 122.0177 881.0315 129.6192 885.0846 137.2567 C890.1186 146.7387 895.3277 156.093 900.7096 165.3817 C907.2188 176.6334 913.2664 188.0781 919.1674 199.659 C922.8176 206.8164 926.5548 213.8952 930.5221 220.8817 C933.7836 226.6909 936.7457 232.2138 938.7721 238.5692 C939.0221 242.6942 939.0221 242.6942 938.7721 245.5692 C937.5022 247.6101 936.1583 249.6054 934.7721 251.5692 C930.7721 254.5692 930.7721 254.5692 927.0877 255.7418 C922.522 256.6171 918.3709 256.814 913.7231 256.8069 C912.8419 256.8083 911.9608 256.8097 911.053 256.8112 C908.1037 256.8134 905.1546 256.8014 902.2053 256.7895 C900.0682 256.7882 897.9311 256.7878 895.7939 256.7883 C889.9233 256.7869 884.0528 256.7731 878.1822 256.7573 C871.8502 256.7425 865.5181 256.7394 859.1861 256.7349 C848.214 256.7257 837.2419 256.7095 826.2699 256.6889 C810.3963 256.6594 794.5227 256.6438 778.6491 256.6321 C752.8826 256.6131 727.116 256.5874 701.3495 256.5553 C699.8072 256.5533 698.265 256.5514 696.676 256.5494 C679.467 256.5279 662.2579 256.5047 645.0489 256.4798 C638.8076 256.4707 632.5664 256.4617 626.3251 256.4527 C625.555 256.4516 625.555 256.4516 621.6582 256.446 C595.9897 256.4093 570.3211 256.3842 544.6526 256.3682 C528.8167 256.3579 512.9809 256.3375 497.1451 256.3041 C486.2972 256.282 475.4494 256.2706 464.6016 256.2677 C458.3402 256.2656 452.079 256.2586 445.8177 256.2385 C440.0868 256.2201 434.356 256.2156 428.625 256.2221 C426.5511 256.2219 424.4771 256.2167 422.4032 256.2059 C419.5843 256.1919 416.7659 256.1965 413.947 256.2056 C413.1641 256.2045 413.1641 256.2045 409.2021 256.1989 C404.1897 256.6179 400.469 257.8113 395.7721 259.5692 C394.7821 259.8992 393.7921 260.2292 392.7721 260.5692 C389.8562 267.7617 389.8562 267.7617 389.4596 271.5692 C389.8912 277.0939 391.5311 281.5193 393.7721 286.5692 C398.809 296.7866 404.4953 306.5728 410.3268 316.3543 C412.6457 320.3514 414.7877 324.3961 416.8971 328.5067 C420.8444 336.0718 425.2148 343.3174 429.7096 350.5692 C430.4073 351.6953 431.105 352.8215 431.8239 353.9818 C433.1878 356.181 434.5522 358.3799 435.9171 360.5785 C442.6021 371.3565 448.6673 382.2073 454.028 393.6988 C460.1672 406.7973 467.393 419.0998 475.1788 431.2774 C484.1182 445.3191 491.9935 459.9236 499.7721 474.6317 C505.6077 485.6616 511.7307 496.4204 518.2462 507.0584 C526.536 520.6987 534.3958 534.5705 541.9454 548.6319 C547.2157 558.4386 552.6814 568.1288 558.1945 577.8006 C559.7328 580.5002 561.2665 583.2024 562.7994 585.9051 C570.7761 599.9443 578.9604 613.8586 587.2526 627.7137 C593.297 637.8688 598.9898 648.197 604.6688 658.5599 C609.3238 667.0247 614.1434 675.3676 619.108 683.6536 C623.4746 690.9753 627.5542 698.4338 631.5963 705.9383 C634.2728 710.8869 637.0315 715.738 640.0221 720.5067 C645.2376 728.8253 650.5858 737.4221 653.7721 746.7567 C654.971 752.5265 655.3065 757.7065 654.7721 763.5692 C652.8299 773.8348 647.0239 782.6655 641.7721 791.5692 C640.3811 793.8638 638.9854 796.1556 637.5846 798.4442 C633.243 805.5905 629.3201 812.9361 625.3971 820.3192 C618.5836 833.1333 611.5293 845.7534 603.9909 858.1551 C595.8918 871.4885 588.335 885.0865 580.8497 898.7728 C555.3573 945.3541 555.3573 945.3541 541.9752 967.8231 C540.574 970.2056 539.2054 972.6077 537.8815 975.034 C535.1497 980.0115 532.6249 984.0473 528.3346 987.8192 C527.159 988.7267 525.9834 989.6342 524.7721 990.5692 C521.8021 990.5692 518.8321 990.5692 515.7721 990.5692 C512.3952 988.6744 509.7045 986.7971 507.0846 983.9442 C497.4667 972.7143 491.1437 958.5569 484.2311 945.5826 C477.7137 933.4416 470.483 921.7691 463.2184 910.0662 C456.314 898.9034 450.0891 887.5237 444.1171 875.8353 C438.6824 865.2571 432.7647 855.0153 426.6862 844.7972 C423.8341 839.9872 421.0164 835.1572 418.1945 830.3294 C408.2016 813.2365 408.2016 813.2365 403.0846 804.8192 C399.2321 798.4503 395.6317 791.9524 392.0221 785.4442 C387.5818 777.4451 383.0107 769.5684 378.1471 761.8192 C367.9669 745.5841 358.778 728.8126 349.5607 712.0174 C346.0031 705.5512 342.3843 699.1459 338.5846 692.8192 C334.5831 686.1165 330.9658 679.2611 327.3971 672.3192 C319.4259 656.8321 310.9184 641.8014 301.4872 627.158 C296.3638 619.1059 291.7938 610.76 287.1986 602.3988 C283.8092 596.2322 280.3748 590.1136 276.7721 584.0692 C272.5418 576.9603 268.5202 569.7485 264.5221 562.5067 C259.6661 553.7152 254.731 544.9809 249.6471 536.3192 C240.1219 520.0841 230.9176 503.6802 221.8346 487.1942 C219.1477 482.3189 216.4602 477.4438 213.7721 472.5692 C213.1619 471.4619 212.5517 470.3546 211.923 469.2137 C205.1583 456.9594 198.2037 444.8679 190.8788 432.9395 C182.2287 418.8336 174.2068 404.4384 166.4596 389.8192 C159.3609 376.4422 151.6796 363.4803 143.7721 350.5692 C136.1241 338.0707 128.8755 325.4104 121.837 312.5572 C115.9286 301.7893 109.7723 291.1827 103.546 280.5965 C100.3875 275.2063 97.2673 269.7941 94.1471 264.3817 C93.5188 263.2919 92.8906 262.2022 92.2433 261.0794 C85.352 249.1163 78.5013 237.13 71.6784 225.1278 C70.6474 223.3164 69.6161 221.5052 68.5846 219.6942 C68.0802 218.8077 67.5757 217.9212 67.056 217.0079 C64.2522 212.0985 61.3681 207.255 58.3971 202.4442 C53.5664 194.4774 49.3937 186.1905 45.1447 177.9051 C38.8873 165.7509 32.1443 153.9089 25.1549 142.1629 C20.8913 134.9905 16.7887 127.7924 12.9596 120.3817 C8.8358 112.4047 4.3525 104.6903 -0.2613 96.9881 C-4.7058 89.5369 -8.8759 81.96 -12.9913 74.3233 C-15.7628 69.1992 -18.6232 64.1648 -21.6654 59.1942 C-25.6877 52.5961 -29.4166 45.8586 -33.1029 39.0692 C-33.6629 38.0413 -34.2229 37.0134 -34.7999 35.9544 C-40.5021 25.3883 -40.5021 25.3883 -42.2279 20.5692 C-42.5209 17.4793 -42.5209 17.4793 -42.4154 14.6317 C-42.3883 13.6739 -42.3613 12.7161 -42.3334 11.7293 C-42.2986 11.0165 -42.2638 10.3036 -42.2279 9.5692 C-40.5779 7.5892 -38.9279 5.6092 -37.2279 3.5692 C-32.5768 1.4716 -28.5368 0.3432 -23.4414 -0.0554 C-15.6054 -0.5819 -7.8406 -0.3043 0 0 Z " fill="#2d3d50" transform="translate(507.2278995513916,268.4308252334595)"/>
    <path d="M0 0 C2.64 0.33 5.28 0.66 8 1 C12.3312 3.5353 15.7901 6.4472 19.0195 10.2969 C25.4186 19.0309 30.4627 28.6077 34.9375 38.4375 C39.9402 49.3453 46.1638 59.4445 52.9492 69.3281 C60.4475 80.2518 66.6194 91.5317 72.6245 103.3364 C76.4523 110.7488 80.6588 117.9588 84.8398 125.1758 C88.0288 130.6974 91.1434 136.2443 94.1211 141.8828 C102.3863 157.5141 111.2678 172.5251 121.1492 187.1895 C126.8554 195.7954 131.3617 204.637 135.6875 214 C140.8049 224.8252 146.2064 235.06 152.8459 245.0188 C157.3806 251.8624 161.303 258.9242 165.125 266.1875 C169.6175 274.7162 174.3422 282.9354 179.5977 291.0137 C183.4071 296.9208 186.8065 302.9929 190.125 309.1875 C195.6383 319.4704 201.4786 329.4709 208.1289 339.0742 C213.5603 347.0462 217.6458 355.3444 221.75 364.0625 C227.6831 376.6545 234.4111 388.3498 242 400 C249.2737 411.432 255.805 423.2647 262.3857 435.1035 C264.4272 438.7665 266.4943 442.4146 268.5625 446.0625 C272.8597 453.6824 276.9903 461.3894 281.1353 469.0928 C284.2823 474.9142 287.5246 480.6431 290.9375 486.3125 C295.268 493.5581 299.1505 500.989 303 508.5 C309.0899 520.3627 315.3766 531.9785 322.7188 543.1289 C329.2176 553.0035 334.6783 563.1263 339.875 573.75 C346.061 586.3954 352.7794 598.4561 360.314 610.3403 C366.4086 619.9544 372.0803 629.6723 377.375 639.75 C384.5485 653.2559 391.9801 666.455 400.375 679.25 C409.5417 693.2276 417.4694 707.9412 425.4294 722.6277 C429.048 729.2934 432.753 735.9057 436.5 742.5 C440.8341 750.1329 445.1107 757.7934 449.3125 765.5 C449.8154 766.4202 450.3183 767.3405 450.8364 768.2886 C452.9517 772.1732 455.0323 776.0636 457.0352 780.0078 C461.3245 788.4408 466.3883 795.9933 471.8645 803.6794 C480.1578 815.3631 486.5332 827.9223 493.0867 840.6321 C496.9249 848.0392 500.9836 855.2278 505.2812 862.3789 C508.7922 868.2744 512.0646 874.303 515.375 880.3125 C519.8931 888.4971 524.477 896.6234 529.3125 904.625 C529.8009 905.4333 530.2893 906.2416 530.7925 907.0745 C533.0349 910.7758 535.2875 914.4707 537.543 918.1641 C542.4853 926.383 546.903 934.7056 551.125 943.3125 C555.2314 951.6694 559.6005 959.4015 565 967 C571.1342 976.1584 576.974 985.4612 582.5 995 C583.0043 995.8597 583.5087 996.7194 584.0283 997.6052 C587.784 1004.1752 590.275 1010.4865 591.8125 1017.9375 C591.9916 1021.819 591.8417 1025.2981 590.9609 1029.0898 C589.0564 1034.8577 586.1515 1040.1433 583.3159 1045.499 C581.8567 1048.2723 580.4291 1051.0607 579.0039 1053.8516 C573.3779 1064.8301 567.5761 1075.6643 561.3755 1086.3291 C557.9336 1092.2758 554.7455 1098.3173 551.625 1104.4375 C545.1903 1116.9641 537.655 1128.8421 529.6348 1140.4121 C523.3913 1149.5018 518.38 1158.8129 513.625 1168.75 C508.1962 1179.9065 502.4697 1190.6266 495.6289 1200.9844 C490.3107 1209.1079 485.7096 1217.6423 481.2812 1226.2773 C470.4033 1247.4858 470.4033 1247.4858 462.9062 1255.1367 C460.1162 1257.7029 457.4253 1259.7962 454 1261.4375 C453.34 1261.6231 452.68 1261.8087 452 1262 C449.36 1261.67 446.72 1261.34 444 1261 C440.202 1258.0837 436.9693 1255.3583 434.1797 1251.4492 C432.0665 1247.9958 430.0336 1244.5009 428 1241 C425.8279 1237.3865 423.632 1233.7875 421.4375 1230.1875 C420.8413 1229.2047 420.2451 1228.2218 419.6309 1227.2092 C416.5239 1222.0964 413.386 1217.0068 410.1836 1211.9531 C402.9536 1200.5418 396.1552 1189.029 389.7695 1177.125 C384.3533 1167.0423 378.5654 1157.2158 372.125 1147.75 C363.386 1134.7918 355.997 1121.1773 349.1875 1107.125 C344.7072 1097.9371 339.6193 1089.4303 333.9319 1080.9438 C326.5084 1069.8648 319.6733 1058.4397 312.8091 1047.0088 C311.306 1044.509 309.7954 1042.0142 308.2773 1039.5234 C301.5155 1028.3849 295.1851 1017.0107 289.0742 1005.5039 C282.5922 993.3326 275.743 981.4729 268.5205 969.7253 C262.692 960.221 257.1522 950.5737 251.6709 940.866 C247.9429 934.2966 244.0733 927.8814 239.9375 921.5625 C235.017 914.0248 230.9664 906.1691 226.9375 898.125 C221.7267 887.7426 215.9525 878.0525 209.4375 868.4375 C202.3034 857.9008 196.3237 847.2151 190.7849 835.7678 C184.3776 822.5358 177.2403 810.6227 168 799.1875 C157.8811 786.6466 151.4098 772.2427 144.7344 757.668 C139.5413 746.6853 133.5508 736.089 127.5586 725.5273 C125.6346 722.1348 123.7369 718.7284 121.8477 715.3164 C115.8746 704.5494 109.7787 693.8923 103.375 683.375 C98.5412 675.4328 94.0293 667.4112 89.8125 659.125 C85.7571 651.1573 81.3772 643.5677 76.5037 636.0742 C72.7103 630.2198 69.2656 624.2201 65.875 618.125 C61.8606 610.9469 57.5065 604.4808 52.3477 598.0547 C44.3969 587.7095 38.5406 575.6285 32.2214 564.2463 C28.9878 558.4493 25.6627 552.7677 22.0625 547.1875 C16.7899 538.9279 12.2712 530.298 7.6792 521.6465 C-6.5974 494.7737 -6.5974 494.7737 -14.8125 482.9375 C-21.0307 473.8341 -25.9705 464.0494 -31.1133 454.3125 C-36.4043 444.3061 -41.9585 434.4502 -47.5327 424.5996 C-48.7979 422.358 -50.0506 420.1094 -51.3008 417.8594 C-54.5512 412.0491 -57.9852 406.4923 -61.75 401 C-69.9021 388.8958 -76.5767 375.9796 -83.0039 362.8945 C-83.6973 361.4861 -84.3906 360.0778 -85.105 358.6267 C-86.4588 355.8627 -87.801 353.0929 -89.1294 350.3167 C-94.0531 340.2349 -99.7648 331.2427 -107.625 323.1875 C-112.5648 317.6773 -115.1327 310.7375 -118 304 C-118.446 302.885 -118.892 301.7699 -119.3516 300.6211 C-122.7125 292.2973 -126.9682 284.8976 -131.6621 277.2786 C-136.1953 269.855 -139.882 262.4721 -142 254 C-142.1715 251.5037 -142.2664 249.0017 -142.3125 246.5 C-142.3499 245.1903 -142.3873 243.8806 -142.4258 242.5312 C-141.5899 233.636 -137.9967 225.5215 -134.2471 217.4812 C-133.7737 216.4974 -133.3003 215.5136 -132.8125 214.5 C-132.5558 213.9659 -132.5558 213.9659 -131.2568 211.2629 C-125.9517 200.4927 -119.7163 190.3548 -113.3945 180.1602 C-105.5364 167.4604 -98.2955 154.3898 -90.9604 141.3835 C-87.235 134.8101 -83.3913 128.3799 -79.25 122.0625 C-74.1547 114.1523 -69.7694 105.9921 -65.4966 97.615 C-61.8216 90.4541 -57.8375 83.5588 -53.6384 76.6951 C-49.6143 70.0936 -45.8146 63.3843 -42.0625 56.625 C-17.6672 12.8123 -17.6672 12.8123 -8.1875 4.25 C-5.4564 2.3221 -3.1856 0.9653 0 0 Z " fill="#2d3d50" transform="translate(408,299)"/>
    <path d="M0 0 C1.98 0.33 3.96 0.66 6 1 C8.6497 2.9078 10.7928 4.6192 13 7 C14.4866 9.5342 14.4866 9.5342 15.8789 12.4219 C16.3949 13.4915 16.9108 14.5611 17.4424 15.6631 C19.9705 21.0792 22.4309 26.5177 24.8125 32 C25.3645 33.2705 25.9166 34.5411 26.4854 35.8501 C31.767 48.1734 36.5487 60.6732 41.3269 73.1978 C48.134 91.016 55.4739 108.5682 63.0283 126.0803 C66.3542 133.7977 69.5855 141.5534 72.8125 149.3125 C76.3355 157.7818 79.9617 166.1859 83.7654 174.533 C97.4296 204.6021 97.4296 204.6021 99.6602 219.3711 C99.852 224.1767 99.4734 228.4403 98.073 233.0542 C94.9719 241.0614 91.2486 248.4821 87 255.9375 C86.3406 257.1092 85.6813 258.2809 85.002 259.488 C79.8887 268.5363 74.6271 277.4933 69.3086 286.4219 C59.3925 303.0908 49.848 319.9754 40.4023 336.9141 C37.6438 341.8583 34.8565 346.7856 32.0593 351.708 C27.1223 360.3975 22.289 369.1317 17.5625 377.9375 C12.6407 387.0962 7.5026 396.1055 2.2329 405.0679 C-1.7623 411.8646 -5.6913 418.6944 -9.5625 425.5625 C-10.0949 426.5067 -10.6273 427.451 -11.1758 428.4238 C-13.3269 432.2432 -15.4747 436.0644 -17.6206 439.8867 C-23.9996 451.2459 -30.4662 462.5388 -37.1272 473.7351 C-41.5434 481.1776 -45.8107 488.6976 -50.0481 496.2429 C-54.0235 503.3086 -58.0865 510.319 -62.1875 517.3125 C-67.0777 525.6569 -71.846 534.054 -76.5156 542.5234 C-81.7406 551.9764 -87.167 561.3178 -92.541 570.6865 C-94.07 573.353 -95.5979 576.02 -97.125 578.6875 C-97.6264 579.5634 -98.1279 580.4393 -98.6445 581.3418 C-101.7668 586.8079 -104.8356 592.2999 -107.875 597.8125 C-115.4024 611.441 -123.3692 624.8187 -131.2539 638.2422 C-138.5671 650.6964 -145.845 663.1662 -152.9883 675.7188 C-156.4061 681.7219 -159.8587 687.7049 -163.3125 693.6875 C-163.9423 694.7796 -164.5721 695.8717 -165.2209 696.9968 C-168.4021 702.5108 -171.5917 708.0196 -174.7969 713.5195 C-181.7296 725.4377 -188.4491 737.439 -194.9438 749.6016 C-200.4278 759.8536 -206.176 769.9383 -212 780 C-213.2204 782.1144 -214.4404 784.229 -215.6602 786.3438 C-217.5843 789.6797 -219.5089 793.0154 -221.4355 796.3499 C-224.8123 802.1958 -228.172 808.0507 -231.5071 813.9204 C-236.5067 822.7182 -241.627 831.4355 -246.8125 840.125 C-252.9662 850.4466 -258.893 860.8742 -264.6843 871.4031 C-268.3959 878.1454 -272.2109 884.8111 -276.125 891.4375 C-280.7398 899.2919 -284.7824 907.1295 -287 916 C-287.5147 923.6323 -287.7829 931.2839 -286.1992 938.8008 C-282.2334 950.6166 -275.3391 961.1756 -268.875 971.75 C-263.8402 980.0566 -259.3565 988.6427 -254.8103 997.2236 C-250.7035 1004.9337 -246.4301 1012.5086 -241.9375 1020 C-236.9681 1028.2965 -232.1173 1036.5143 -228.625 1045.5625 C-227.7299 1050.4857 -227.5226 1055.0163 -228 1060 C-230.2256 1069.0365 -234.3648 1077.0734 -238.8125 1085.1875 C-239.469 1086.4 -240.1256 1087.6125 -240.802 1088.8618 C-245.8217 1098.0497 -251.1365 1107.0372 -256.5767 1115.9807 C-265.5601 1130.7831 -273.5498 1146.0949 -281.5029 1161.4675 C-285.2998 1168.7629 -289.3191 1175.9072 -293.4341 1183.0269 C-300.7756 1195.7573 -307.658 1208.7424 -314.582 1221.7031 C-320.3786 1232.5385 -326.2361 1243.2828 -332.5547 1253.8242 C-335.9046 1259.5448 -339.0547 1265.3708 -342.1589 1271.228 C-344.6947 1275.9333 -347.3103 1280.0744 -351 1284 C-354.3125 1285.875 -354.3125 1285.875 -357 1287 C-359.64 1286.67 -362.28 1286.34 -365 1286 C-368.0573 1283.792 -370.4523 1281.7638 -373 1279 C-376.1194 1274.3342 -378.8592 1269.4768 -381.5757 1264.5703 C-383.6359 1260.8525 -385.7336 1257.1562 -387.8274 1253.4573 C-388.948 1251.476 -390.0663 1249.4934 -391.1824 1247.5095 C-394.3871 1241.8173 -397.6544 1236.173 -401 1230.5625 C-404.9866 1223.8472 -408.6983 1217.014 -412.375 1210.125 C-416.7813 1201.8922 -421.4307 1193.9192 -426.4844 1186.0693 C-435.7788 1171.6229 -444.219 1156.6779 -452.5603 1141.6672 C-457.5404 1132.7403 -462.7288 1123.9469 -467.9614 1115.1663 C-477.9063 1098.4678 -487.5524 1081.6001 -497.0955 1064.6694 C-506.5173 1047.972 -516.1632 1031.4051 -525.875 1014.875 C-538.4385 993.4713 -538.4385 993.4713 -543 985 C-543.4576 984.1531 -543.9152 983.3062 -544.3867 982.4336 C-546.3081 978.5572 -547.3624 974.8192 -547.9375 970.5625 C-548.1271 966.8482 -547.8295 964.0988 -547.125 960.375 C-542.8512 948.1337 -535.3178 936.7631 -528.7148 925.6836 C-525.5947 920.3709 -522.7133 914.9345 -519.8125 909.5 C-515.3057 901.0681 -510.551 892.8429 -505.5625 884.6875 C-498.2802 872.754 -491.8969 860.4379 -485.54 847.9941 C-479.752 836.7411 -473.3864 825.9381 -466.625 815.25 C-460.1798 805.0584 -454.3093 794.6654 -448.6323 784.0317 C-445.5154 778.2426 -442.312 772.5008 -439.125 766.75 C-433.9343 757.3677 -428.8096 747.9536 -423.75 738.5 C-419.187 729.9821 -414.5091 721.5471 -409.6765 713.1794 C-404.6494 704.4533 -399.8299 695.6155 -394.9927 686.7832 C-390.9779 679.4858 -386.8229 672.3056 -382.5 665.1875 C-377.1855 656.4099 -372.6289 647.3409 -368.125 638.125 C-362.2963 626.227 -355.9137 615.0126 -348.7383 603.8867 C-344.6487 597.5276 -340.8758 591.0006 -337.125 584.4375 C-329.4989 571.101 -329.4989 571.101 -325.5625 564.625 C-314.3268 546.0324 -303.8316 526.9864 -293.3164 507.9805 C-290.7396 503.3245 -288.1301 498.6886 -285.5 494.0625 C-280.7301 485.6207 -276.2119 477.0458 -271.655 468.4878 C-267.5865 460.877 -263.3766 453.3787 -258.9905 445.9478 C-255.4652 439.9259 -252.2475 433.7699 -249.0625 427.5625 C-243.9736 417.6766 -238.4485 408.1467 -232.6377 398.6709 C-223.9799 384.551 -215.5605 370.3767 -207.7803 355.7524 C-203.699 348.1405 -199.2616 340.8124 -194.6636 333.5042 C-189.4413 325.1805 -184.6693 316.644 -180 308 C-179.516 307.1047 -179.0319 306.2095 -178.5332 305.2871 C-177.4844 303.3468 -176.4356 301.4065 -175.387 299.4661 C-174.8468 298.4666 -174.3066 297.4672 -173.75 296.4375 C-173.204 295.4271 -172.658 294.4167 -172.0955 293.3757 C-163.6123 277.707 -154.8982 262.1767 -145.875 246.8125 C-138.8313 234.8149 -132.1678 222.6291 -125.5894 210.3716 C-118.7146 197.57 -111.5256 184.9879 -104.1467 172.4697 C-97.5331 161.2409 -91.1648 149.8993 -85 138.418 C-78.9594 127.1789 -72.7686 116.0636 -66.2996 105.0652 C-59.6881 93.8094 -53.3384 82.4111 -47 71 C-46.3901 69.9025 -45.7802 68.805 -45.1519 67.6743 C-43.898 65.4178 -42.6443 63.1611 -41.3909 60.9043 C-40.1338 58.6411 -38.8765 56.3781 -37.6189 54.1152 C-34.4928 48.4901 -31.3711 42.8627 -28.2578 37.2305 C-13.5352 10.6605 -13.5352 10.6605 -9 5 C-5.997 2.7516 -3.5557 1.1852 0 0 Z " fill="#2d3d50" transform="translate(1760,613)"/>
    <path d="M0 0 C4.62 -0.0019 9.24 -0.0095 13.86 -0.0161 C23.8915 -0.0295 33.923 -0.0357 43.9545 -0.0401 C50.2303 -0.0429 56.5062 -0.0472 62.782 -0.0517 C80.2059 -0.0638 97.6299 -0.0741 115.0538 -0.0775 C116.1618 -0.0777 117.2699 -0.078 118.4115 -0.0782 C119.5219 -0.0784 120.6323 -0.0786 121.7763 -0.0789 C124.0257 -0.0793 126.2751 -0.0797 128.5244 -0.0802 C129.0823 -0.0803 129.0823 -0.0803 131.9054 -0.0809 C150.0546 -0.0848 168.2038 -0.1023 186.353 -0.1256 C205.0467 -0.1493 223.7405 -0.1617 242.4342 -0.1629 C252.907 -0.1638 263.3797 -0.1695 273.8525 -0.1877 C282.7484 -0.2031 291.6442 -0.2082 300.5401 -0.2 C305.0741 -0.1961 309.6081 -0.197 314.1421 -0.211 C319.059 -0.2261 323.9757 -0.2179 328.8927 -0.2074 C330.3203 -0.2155 331.7479 -0.2236 333.2187 -0.2319 C339.0503 -0.2028 344.4421 -0.0577 350.0742 1.5463 C354.3062 3.16 354.3062 3.16 357.4312 5.3475 C358.0499 5.9457 358.6687 6.5438 359.3062 7.16 C360.2962 9.8 361.2862 12.44 362.3062 15.16 C362.0437 20.4086 361.2699 24.7744 359.3062 29.66 C353.8695 41.9194 347.1579 53.4919 340.3687 65.035 C332.9004 77.7414 325.8768 90.5671 319.6675 103.9376 C315.5804 112.7308 311.1421 121.0865 306.0576 129.3436 C301.8658 136.1596 297.9352 143.0994 294.0562 150.0975 C290.4727 156.5587 286.8832 162.9768 282.9312 169.2225 C279.341 174.9272 276.4017 180.8723 273.4312 186.9179 C267.6013 198.5561 261.1727 209.6281 253.8062 220.3671 C251.5803 223.7442 249.543 227.1786 247.5557 230.7001 C243.0059 238.747 238.2615 245.9927 231.3062 252.16 C226.4843 255.1107 221.8074 256.9054 216.3062 258.16 C209.0543 259.1697 201.9667 259.2757 194.6523 259.2135 C193.4136 259.2071 192.1748 259.2007 190.8985 259.1941 C186.8182 259.1714 182.738 259.1408 178.6577 259.1093 C175.8015 259.09 172.9452 259.071 170.089 259.0521 C164.1022 259.0111 158.1156 258.9659 152.1289 258.9181 C144.5027 258.8577 136.8764 258.8107 129.25 258.7673 C123.3473 258.7317 117.4447 258.6875 111.542 258.6409 C108.7332 258.62 105.9243 258.6021 103.1154 258.5873 C65.3153 258.378 65.3153 258.378 51.6187 254.41 C48.1182 253.084 45.0611 251.5561 41.9937 249.41 C37.3885 245.3512 33.003 241.2484 30.0281 235.8339 C28.9007 233.3418 27.8687 230.8308 26.8687 228.285 C26.1014 226.4201 25.3332 224.5555 24.564 222.6913 C24.1866 221.7632 23.8092 220.835 23.4204 219.8788 C16.7377 203.5733 8.9024 188.2289 -0.4114 173.2799 C-4.5201 166.6111 -8.1288 159.729 -11.7109 152.767 C-15.0166 146.3713 -18.5817 140.1943 -22.3384 134.0507 C-30.0024 121.3916 -37.1351 108.4077 -44.3188 95.4725 C-44.9594 94.3199 -45.6 93.1672 -46.26 91.9796 C-49.011 87.0227 -51.7544 82.0627 -54.4478 77.0741 C-58.5443 69.5204 -62.881 62.2921 -67.7563 55.2225 C-74.3436 45.6604 -80.0106 35.2098 -83.6938 24.16 C-83.7628 22.0986 -83.7785 20.035 -83.7563 17.9725 C-83.7518 17.4292 -83.7518 17.4292 -83.729 14.6796 C-83.7174 13.8481 -83.7058 13.0167 -83.6938 12.16 C-82.3738 10.18 -81.0538 8.2 -79.6938 6.16 C-73.4242 2.3491 -73.4242 2.3491 -70.3393 1.5506 C-67.3952 1.116 -64.5289 0.9483 -61.5541 0.8493 C-60.3254 0.8082 -59.0968 0.767 -57.831 0.7246 C-57.1624 0.7053 -57.1624 0.7053 -53.7787 0.6076 C-53.0706 0.5866 -53.0706 0.5866 -49.4875 0.4801 C-32.9931 0.0311 -16.4994 0.0029 0 0 Z " fill="#2d3d50" transform="translate(1053.6938455104828,566.8399572372437)"/>
  </g>
  <g id="teal">
    <path d="M0 0 C1.8249 -0.0016 3.6497 -0.0041 5.4746 -0.0073 C10.4627 -0.0137 15.4507 -0.0077 20.4387 0.0004 C25.8561 0.0071 31.2735 0.0021 36.6909 -0.0014 C47.3717 -0.0064 58.0525 -0.0006 68.7334 0.0086 C81.3973 0.019 94.0613 0.0182 106.7252 0.0172 C132.6117 0.0155 158.4982 0.0277 184.3847 0.0444 C204.1646 0.057 223.9444 0.0654 243.7243 0.071 C366.543 0.107 489.3618 0.1939 660.0652 0.6616 C666.0673 0.6798 672.0693 0.6973 678.0713 0.7144 C697.2923 0.7694 716.5133 0.8297 735.7342 0.9 C741.4015 0.9207 747.0688 0.9394 752.7361 0.9564 C759.1551 0.9758 765.5741 0.9998 771.9931 1.0277 C774.2925 1.037 776.5919 1.0447 778.8913 1.0507 C798.7014 1.1036 798.7014 1.1036 807.8873 2.0232 C813.2226 2.4686 818.573 2.3858 823.9234 2.3766 C825.1998 2.3784 826.4761 2.3801 827.7912 2.3819 C831.973 2.3863 836.1547 2.3834 840.3365 2.3801 C843.2596 2.3807 846.1828 2.3817 849.1059 2.3829 C855.215 2.3844 861.3241 2.3823 867.4332 2.3776 C875.2566 2.3719 883.0801 2.3752 890.9036 2.3812 C896.9327 2.3848 902.9619 2.3836 908.9911 2.3811 C911.876 2.3804 914.761 2.3812 917.6459 2.3835 C921.6759 2.3861 925.7059 2.3822 929.7359 2.3766 C930.9226 2.3787 932.1093 2.3807 933.3319 2.3828 C939.1724 2.3679 944.7783 2.0917 950.5708 1.2472 C957.805 0.8989 964.9005 0.6831 972.0083 2.1847 C977.2418 5.2146 981.4689 8.808 985.5708 13.2472 C988.196 16.7583 990.388 20.4489 992.5708 24.2472 C994.0448 26.7503 995.5243 29.2501 997.0083 31.7472 C997.6877 32.9126 998.367 34.0779 999.0669 35.2785 C1001.0766 38.4638 1003.1592 41.4339 1005.4029 44.4504 C1009.6528 50.2325 1013.2768 56.2637 1016.8208 62.4972 C1017.4671 63.6233 1018.1133 64.7494 1018.7791 65.9096 C1022.9567 73.2449 1026.9165 80.6691 1030.7583 88.1847 C1035.2371 96.9401 1040.1902 105.2196 1045.5201 113.4777 C1054.9349 128.0911 1063.3359 143.3176 1071.6856 158.5549 C1076.1643 166.7249 1080.7421 174.8285 1085.4039 182.8952 C1088.7193 188.6658 1091.8325 194.5206 1094.8833 200.4347 C1097.8744 206.2227 1101.0314 211.6715 1104.9068 216.9152 C1108.7666 222.3244 1112.3441 228.102 1114.7623 234.3019 C1115.8653 238.3197 1115.6964 242.1048 1115.5708 246.2472 C1114.2508 248.2272 1112.9308 250.2072 1111.5708 252.2472 C1105.3052 256.0558 1105.3052 256.0558 1102.2347 256.8564 C1099.1881 257.3034 1096.2153 257.4632 1093.1373 257.5636 C1091.8632 257.6055 1090.5891 257.6474 1089.2764 257.6906 C1087.9092 257.7299 1086.542 257.7692 1085.1333 257.8097 C1083.7172 257.8529 1082.301 257.8961 1080.8418 257.9406 C1069.8569 258.2478 1058.8853 258.2837 1047.897 258.228 C1039.8834 258.2018 1031.9813 258.4936 1023.9849 259.0207 C1018.6557 259.2942 1013.3438 259.3617 1008.0083 259.3722 C1007.1228 259.3767 1006.2373 259.3813 1005.325 259.3859 C999.7469 259.3738 994.2152 259.1132 988.6491 258.7468 C980.5092 258.2594 972.4134 258.1069 964.2609 258.1214 C962.8121 258.1199 961.3634 258.1185 959.8707 258.117 C955.8863 258.114 951.902 258.1154 947.9176 258.1188 C943.5679 258.1213 939.2183 258.118 934.8686 258.1155 C927.2561 258.1119 919.6436 258.112 912.031 258.1146 C900.7081 258.1184 889.3852 258.1164 878.0623 258.1134 C857.8228 258.1081 837.5833 258.1086 817.3438 258.1114 C799.6015 258.114 781.8591 258.1146 764.1168 258.1134 C762.9379 258.1133 761.759 258.1133 760.5444 258.1132 C755.7579 258.1129 750.9714 258.1126 746.1848 258.1122 C701.2684 258.1092 656.352 258.1119 611.4355 258.1173 C571.6629 258.1221 531.8903 258.1217 492.1177 258.1169 C447.3536 258.1115 402.5896 258.1094 357.8255 258.1125 C353.033 258.1128 348.2405 258.1131 343.4481 258.1134 C342.8581 258.1135 342.8581 258.1135 339.8727 258.1137 C322.1891 258.1148 304.5054 258.1135 286.8218 258.1109 C266.6422 258.1081 246.4626 258.1089 226.283 258.1142 C216.0149 258.1169 205.7467 258.118 195.4785 258.1146 C159.8352 258.1035 124.1918 258.1055 88.5509 258.5743 C85.7351 258.6111 82.9192 258.6452 80.1034 258.6762 C76.2852 258.7201 72.4675 258.7768 68.6496 258.8377 C67.5473 258.8489 66.445 258.86 65.3093 258.8715 C59.1118 258.9889 53.5527 259.578 47.5708 261.2472 C44.0083 263.3722 44.0083 263.3722 41.5708 265.2472 C41.0256 266.2256 40.4803 267.204 39.9185 268.2121 C35.8579 275.2714 31.9248 281.7587 25.9537 287.3449 C23.43 289.3597 20.8352 291.0177 18.0708 292.6847 C13.1286 295.6927 9.505 299.0398 5.7623 303.4386 C2.5383 307.5706 -0.4603 311.8269 -3.3706 316.1847 C-4.5566 317.9492 -5.7764 319.6939 -7.0815 321.3722 C-10.9184 326.4203 -12.8136 331.9043 -14.8042 337.8722 C-20.0215 353.4574 -28.5654 366.883 -37.1167 380.8254 C-44.1697 392.3416 -50.5669 404.1817 -56.936 416.0849 C-60.9113 423.4939 -65.0018 430.8256 -69.1792 438.1222 C-73.6951 446.0223 -77.8982 454.019 -81.9072 462.1867 C-85.0588 468.5846 -88.4712 474.7971 -92.019 480.9855 C-93.8225 484.1746 -95.581 487.3726 -97.3081 490.6027 C-106.0398 506.9142 -106.0398 506.9142 -111.3042 514.4347 C-117.48 523.3852 -122.1748 533.0993 -127.1088 542.7707 C-134.9575 558.1533 -143.4832 573.6245 -153.5542 587.6847 C-159.2278 595.9909 -162.9685 605.8596 -167.1401 614.9933 C-170.5996 622.292 -174.7412 628.582 -179.5273 635.0832 C-185.6359 643.5926 -190.3012 652.8712 -195.1713 662.1222 C-198.3589 668.1696 -201.7954 674.001 -205.3549 679.8371 C-211.1638 689.3872 -216.4403 699.0146 -220.9292 709.2472 C-227.2934 723.6931 -235.3112 736.7324 -243.977 749.8857 C-250.5227 759.8422 -256.2936 770.0603 -261.8042 780.6222 C-264.7997 786.3452 -267.9947 791.817 -271.4917 797.2472 C-277.4538 806.619 -281.9054 816.5348 -286.3862 826.6769 C-291.0035 836.8951 -296.3856 845.2408 -303.5776 853.8058 C-311.0242 863.067 -315.8401 873.5888 -320.9746 884.2321 C-324.844 892.2529 -328.6932 899.9829 -333.6792 907.3722 C-338.9817 915.3714 -343.6578 923.6303 -348.2382 932.0583 C-352.8053 940.4528 -357.3961 948.7793 -362.6792 956.7472 C-367.4463 964.0186 -371.4739 971.6319 -375.5588 979.2978 C-378.6784 985.1183 -381.9141 990.7594 -385.4917 996.3097 C-390.6851 1004.4192 -395.0274 1012.8912 -399.4252 1021.4465 C-403.4606 1029.285 -407.7451 1036.9818 -412.0185 1044.6921 C-414.5299 1049.241 -417.0085 1053.8078 -419.4917 1058.3722 C-423.5301 1065.7878 -427.6011 1073.1839 -431.7106 1080.5602 C-434.8027 1086.1121 -437.8702 1091.6771 -440.9292 1097.2472 C-445.5801 1105.7134 -450.2616 1114.1624 -454.9585 1122.6032 C-457.296 1126.8056 -459.6309 1131.0095 -461.966 1135.2133 C-463.2752 1137.57 -464.5846 1139.9266 -465.8942 1142.2831 C-468.6636 1147.2665 -471.4324 1152.2501 -474.1909 1157.2394 C-474.5997 1157.9781 -475.0086 1158.7167 -475.4299 1159.4777 C-476.6077 1161.6061 -477.7841 1163.7352 -478.9604 1165.8644 C-480.7462 1169.0657 -482.5905 1172.2272 -484.4604 1175.3801 C-489.2521 1183.5052 -493.628 1191.2349 -496.7417 1200.1847 C-500.6196 1210.8849 -507.1118 1219.603 -513.6918 1228.8073 C-520.3838 1238.2058 -525.9531 1247.9655 -531.1948 1258.217 C-534.2676 1264.1802 -537.5954 1269.8911 -541.1792 1275.5597 C-546.1422 1283.46 -549.9984 1291.5775 -553.4292 1300.2472 C-554.0685 1301.7322 -554.7079 1303.2172 -555.3667 1304.7472 C-556.6673 1310.2558 -556.8405 1315.4433 -556.9252 1321.0871 C-556.3059 1326.2811 -554.7333 1330.6009 -552.4292 1335.2472 C-549.8705 1339.7878 -547.131 1344.2047 -544.3667 1348.6222 C-539.2959 1356.8312 -534.3352 1365.0402 -529.8042 1373.5597 C-525.3732 1381.8477 -520.3366 1389.6342 -515.1272 1397.4513 C-510.0208 1405.1754 -505.4714 1413.1279 -501.0053 1421.2345 C-497.3089 1427.8766 -493.1662 1433.9654 -488.6323 1440.0715 C-484.8914 1445.4639 -482.2081 1451.3188 -479.4292 1457.2472 C-474.871 1466.7667 -469.9568 1475.7618 -464.2651 1484.6496 C-460.7637 1490.2225 -457.6147 1495.9901 -454.4292 1501.7472 C-448.0232 1513.2843 -441.3418 1524.5128 -433.9135 1535.4308 C-426.2507 1546.706 -419.5723 1557.3424 -415.4292 1570.4347 C-413.5169 1576.3326 -411.0121 1581.1864 -407.4292 1586.2472 C-405.9636 1588.0781 -404.4976 1589.9087 -403.0258 1591.7345 C-394.692 1602.158 -388.8519 1613.3984 -382.9077 1625.3073 C-376.8801 1637.2928 -370.0419 1648.5425 -362.5354 1659.6427 C-356.3823 1668.7444 -350.7727 1678.1051 -345.3549 1687.6613 C-344.8188 1688.6055 -344.2828 1689.5498 -343.7304 1690.5226 C-342.6783 1692.3805 -341.6308 1694.2411 -340.5888 1696.1047 C-335.778 1704.6293 -335.778 1704.6293 -332.4292 1708.2472 C-329.1792 1710.0597 -329.1792 1710.0597 -326.4292 1711.2472 C-322.7992 1711.2472 -319.1692 1711.2472 -315.4292 1711.2472 C-311.2335 1708.7499 -308.1114 1706.0234 -304.9819 1702.2797 C-302.2946 1698.7621 -300.1474 1694.9813 -297.9917 1691.1222 C-297.738 1690.6742 -297.738 1690.6742 -296.4543 1688.4072 C-291.4176 1679.4147 -286.7604 1670.23 -282.0725 1661.0527 C-277.732 1652.6127 -273.1137 1644.4129 -268.2072 1636.2914 C-263.6036 1628.6451 -259.3788 1620.8233 -255.1784 1612.9499 C-251.8132 1606.6843 -248.2651 1600.5872 -244.4917 1594.5597 C-238.6505 1585.1837 -234.3102 1575.7705 -230.6167 1565.3722 C-226.9442 1555.4272 -221.5864 1546.8239 -215.6049 1538.1144 C-208.0421 1527.081 -201.7979 1515.6967 -195.7309 1503.7809 C-191.9458 1496.4137 -187.803 1489.3046 -183.2495 1482.3879 C-176.891 1472.6966 -171.2018 1463.108 -166.3667 1452.5597 C-162.395 1443.915 -157.9914 1436.2064 -152.4316 1428.4975 C-147.142 1421.0846 -142.8274 1413.2255 -138.4624 1405.2436 C-134.5808 1398.1857 -130.3957 1391.577 -125.82 1384.9482 C-123.4806 1381.3268 -121.5276 1377.6994 -119.6245 1373.8332 C-118.9334 1372.4309 -118.2423 1371.0287 -117.5302 1369.5839 C-114.8706 1364.0943 -112.2563 1358.584 -109.6462 1353.0707 C-103.0286 1339.1562 -96.0576 1326.0006 -87.4292 1313.2472 C-85.8615 1310.7922 -84.2987 1308.334 -82.7417 1305.8722 C-79.9706 1301.5557 -77.0883 1297.3559 -74.0983 1293.1889 C-69.5232 1286.5931 -65.9003 1279.7712 -62.4096 1272.5558 C-61.7849 1271.2899 -61.1602 1270.024 -60.5166 1268.7197 C-58.5401 1264.7128 -56.577 1260.6996 -54.6167 1256.6847 C-46.1843 1239.4344 -37.6721 1222.5001 -27.4292 1206.2472 C-21.4242 1196.698 -16.0402 1186.9938 -10.9292 1176.9347 C-10.2215 1175.5535 -9.5138 1174.1723 -8.7846 1172.7492 C-5.2069 1165.754 -1.6782 1158.7371 1.8091 1151.6965 C7.4977 1140.306 14.2936 1129.8958 21.8833 1119.6847 C27.5999 1111.9763 32.348 1103.9019 36.9698 1095.4994 C39.876 1090.2188 42.8799 1085.1216 46.2583 1080.1222 C50.4138 1073.8362 53.4891 1067.2453 56.6258 1060.4179 C60.0379 1053.102 64.0171 1046.2768 68.252 1039.4123 C71.2662 1034.5008 73.9978 1029.5677 76.5083 1024.3722 C79.6118 1017.9666 83.0885 1011.8993 86.7583 1005.8097 C93.9171 993.9054 100.3001 981.6374 106.5708 969.2472 C107.0157 968.3758 107.4606 967.5043 107.919 966.6064 C110.6326 961.2519 113.0878 955.833 115.4458 950.3097 C120.3734 939.0703 127.0101 929.6133 134.0884 919.6476 C142.8612 907.2424 150.0884 894.2817 156.2896 880.3996 C163.2795 864.841 172.1163 850.1289 181.4068 835.8371 C187.1363 827.0203 191.6686 817.9508 196.1153 808.446 C199.579 801.114 203.4493 794.3044 207.8873 787.509 C211.3198 782.1789 214.3224 776.6083 217.3833 771.0597 C221.7544 763.1576 226.2555 755.3868 231.0708 747.7472 C240.6131 732.5714 249.3881 716.9347 257.2701 700.8332 C269.9512 675.2567 283.736 650.0119 299.5708 626.2472 C300.2785 625.1386 300.9862 624.0301 301.7154 622.8879 C306.0647 616.128 310.6607 609.7412 316.5708 604.2472 C321.1328 601.396 325.4781 599.7801 330.7285 598.6606 C336.9502 597.7557 343.2538 597.9375 349.5281 597.9284 C351.1202 597.9183 352.7123 597.9083 354.3526 597.8979 C358.7126 597.8707 363.0725 597.8555 367.4326 597.8425 C372.0506 597.8267 376.6685 597.8 381.2865 597.7745 C389.0817 597.733 396.8769 597.6985 404.6722 597.6691 C415.4861 597.6283 426.3 597.5755 437.1139 597.5199 C454.7575 597.4295 472.401 597.3568 490.0447 597.2996 C498.8402 597.2706 507.6356 597.2325 516.4311 597.1761 C520.8558 597.149 525.2806 597.1297 529.7054 597.1127 C531.5907 597.1038 533.476 597.0914 535.3613 597.0748 C545.1579 596.99 554.8672 597.2885 564.6297 598.069 C565.5578 598.1385 566.4859 598.208 567.4422 598.2796 C574.0269 598.8654 580.304 600.1097 586.5708 602.2472 C590.4943 604.4586 593.5123 606.9535 596.5708 610.2472 C596.5708 613.5472 596.5708 616.8472 596.5708 620.2472 C592.4334 628.9454 587.7354 637.1215 582.5708 645.2472 C582.0049 646.1393 581.439 647.0313 580.856 647.9504 C580.3082 648.8115 579.7603 649.6726 579.1958 650.5597 C578.6235 651.4608 578.0512 652.3618 577.4615 653.2902 C576.1093 655.405 574.7431 657.5108 573.3677 659.6105 C568.0818 667.8207 563.4482 676.1812 559.0083 684.8722 C555.0522 692.6133 550.9602 700.0169 546.1255 707.2511 C536.7197 721.964 528.465 737.4681 520.2583 752.8722 C513.1355 766.2232 505.7698 779.4064 496.6177 791.4972 C495.9423 792.4047 495.2668 793.3122 494.5708 794.2472 C494.0509 794.9359 493.5309 795.6246 492.9952 796.3342 C488.2206 802.8639 484.7996 809.6559 481.4458 816.9972 C476.3643 827.848 470.7194 838.1284 464.5005 848.3605 C461.9559 852.553 459.6331 856.8253 457.3833 861.1847 C454.8234 866.0913 452.0268 870.6307 448.8833 875.1847 C443.1885 883.5261 438.5449 892.3552 433.7896 901.2551 C424.5293 918.5713 414.1275 935.1434 403.3951 951.5793 C398.8143 958.7497 394.9887 966.2347 391.1333 973.8097 C385.4901 984.8886 379.2989 995.5066 372.7708 1006.0839 C364.8385 1018.9685 357.5056 1032.1407 350.8833 1045.7472 C346.6119 1054.4239 341.1975 1062.3166 335.8326 1070.3449 C330.3908 1078.557 325.6356 1086.7862 321.3248 1095.6691 C317.8356 1102.7873 313.852 1108.9486 308.8833 1115.1222 C304.019 1121.3066 300.3679 1127.8099 296.6841 1134.7255 C293.2033 1141.2207 289.3567 1147.3405 285.1529 1153.3996 C278.6504 1163.0894 272.8901 1173.1202 267.4458 1183.4347 C266.1374 1185.8932 264.8288 1188.3515 263.5201 1190.8097 C262.8644 1192.0447 262.2088 1193.2796 261.5332 1194.5519 C251.3143 1213.7947 241.1015 1232.895 229.1333 1251.1222 C220.2043 1264.7363 212.2541 1278.7669 204.6958 1293.1847 C204.1602 1294.2027 203.6246 1295.2207 203.0728 1296.2695 C199.9764 1302.2471 197.2339 1308.2639 194.7789 1314.5336 C192.0357 1320.6958 187.8524 1325.8149 183.3833 1330.8097 C172.504 1343.0827 165.5861 1355.9113 159.4922 1371.0182 C155.9145 1379.6735 150.6246 1387.2127 145.3829 1394.9206 C141.4184 1400.8118 137.85 1406.8646 134.3833 1413.0597 C131.2159 1418.7147 128.0397 1424.2218 124.2583 1429.4972 C113.0459 1445.2109 103.8413 1462.3543 94.7466 1479.3488 C86.8428 1494.0965 78.418 1508.5535 69.9444 1522.9789 C65.5071 1530.5638 61.2411 1538.2343 57.0083 1545.9347 C52.0829 1554.8853 46.9367 1563.6258 41.4825 1572.2624 C37.1184 1579.2292 33.0968 1586.3585 29.1333 1593.5597 C20.4533 1609.3271 11.7329 1625.0875 1.8208 1640.1222 C-3.239 1647.8191 -7.6981 1655.767 -12.1049 1663.8434 C-15.955 1670.8322 -19.9639 1677.7334 -23.9399 1684.651 C-25.3823 1687.1655 -26.8166 1689.6844 -28.2495 1692.2043 C-32.5384 1699.7148 -36.9215 1707.0592 -41.7417 1714.2472 C-46.4801 1721.4391 -50.4191 1728.8775 -54.3042 1736.5597 C-58.8995 1745.6322 -63.7778 1754.2361 -69.455 1762.6691 C-76.1 1772.5953 -81.8756 1783.0234 -87.7885 1793.3952 C-89.8647 1797.0043 -92.0126 1800.5668 -94.1792 1804.1222 C-97.6018 1809.7644 -100.783 1815.5112 -103.9292 1821.3097 C-107.7009 1828.2535 -111.7143 1834.9199 -116.0659 1841.5207 C-118.9278 1846.0335 -121.5548 1850.656 -124.1792 1855.3097 C-128.361 1862.7058 -132.6531 1870.0173 -137.1167 1877.2472 C-137.6146 1878.0581 -138.1125 1878.869 -138.6254 1879.7045 C-141.5544 1884.4163 -144.6391 1888.9681 -147.8549 1893.4894 C-152.5049 1900.1636 -156.2714 1907.1172 -159.9292 1914.3722 C-160.5771 1915.6376 -161.2251 1916.903 -161.8928 1918.2067 C-165.4951 1925.2799 -168.9373 1932.4062 -172.2417 1939.6222 C-177.4233 1950.7327 -184.3313 1960.3492 -191.4917 1970.2472 C-199.0815 1980.8397 -205.2802 1991.34 -209.9331 2003.5207 C-214.5073 2014.9145 -221.1265 2024.9012 -228.0065 2034.9892 C-232.8468 2042.17 -237.0362 2049.5796 -241.0979 2057.2216 C-244.6172 2063.8277 -248.3914 2070.2092 -252.3557 2076.5561 C-255.764 2082.0528 -258.872 2087.6741 -261.9292 2093.3722 C-265.2596 2099.5609 -268.7853 2105.3838 -272.8667 2111.1222 C-279.0432 2119.8467 -283.9404 2129.141 -288.9736 2138.5558 C-295.3602 2150.3649 -302.3556 2161.851 -309.2417 2173.3722 C-309.5528 2173.8939 -309.5528 2173.8939 -311.1276 2176.5336 C-321.8322 2194.3678 -321.8322 2194.3678 -327.4292 2199.2472 C-329.0629 2200.3001 -330.721 2201.3199 -332.4292 2202.2472 C-335.3992 2202.2472 -338.3692 2202.2472 -341.4292 2202.2472 C-344.7603 2200.7205 -347.624 2199.0369 -350.2534 2196.4582 C-360.8709 2183.8596 -368.3863 2168.3957 -376.434 2154.1025 C-385.346 2138.2766 -394.3378 2122.6418 -404.5349 2107.6025 C-409.0942 2100.8453 -413.1423 2093.9064 -417.0444 2086.7482 C-420.8026 2079.9606 -424.715 2073.2576 -428.583 2066.5322 C-431.8317 2060.8638 -435.019 2055.1767 -438.0854 2049.4074 C-440.7747 2044.3796 -443.6484 2039.6201 -446.8042 2034.8722 C-455.2664 2021.9954 -462.9233 2008.7002 -470.4292 1995.2472 C-471.8663 1992.7054 -473.3038 1990.1637 -474.7417 1987.6222 C-477.3022 1983.0924 -479.8108 1978.5471 -482.2417 1973.9465 C-488.9274 1961.3449 -495.8869 1948.9228 -505.2976 1938.0981 C-511.4678 1930.8953 -515.183 1923.0172 -519.1167 1914.4347 C-524.2077 1903.6037 -529.553 1893.2934 -536.0459 1883.2453 C-540.9767 1875.5657 -544.695 1867.5785 -548.4292 1859.2472 C-554.805 1845.5886 -562.5955 1833.1343 -570.8471 1820.5636 C-577.4532 1810.4499 -583.2632 1799.9402 -589.0117 1789.3249 C-595.4998 1777.3626 -602.1566 1765.8709 -610.165 1754.8608 C-616.3013 1746.2949 -621.2643 1737.1335 -626.312 1727.8996 C-628.6424 1723.6363 -631.0755 1719.4764 -633.6792 1715.3722 C-640.2453 1704.8999 -645.8242 1693.8264 -650.9772 1682.6008 C-654.4432 1675.0615 -658.0002 1668.5452 -663.4292 1662.2472 C-674.4004 1648.6142 -682.5005 1635.1145 -689.1579 1618.8571 C-697.6055 1598.5611 -709.1187 1580.1021 -721.351 1561.923 C-722.2282 1560.6166 -723.1054 1559.3103 -724.0092 1557.9643 C-725.7397 1555.3931 -727.4775 1552.8268 -729.2241 1550.2665 C-736.6152 1539.3179 -742.8727 1527.9911 -748.2216 1515.9152 C-755.2453 1500.3966 -763.7559 1485.7296 -773.0136 1471.4616 C-778.2575 1463.2584 -783.2611 1454.8615 -787.4292 1446.0597 C-789.558 1441.6539 -792.0571 1437.9115 -794.9917 1433.9972 C-800.3367 1426.7525 -804.4648 1419.0287 -808.666 1411.079 C-811.6802 1405.3997 -814.8013 1399.9198 -818.3667 1394.5597 C-823.6947 1386.4845 -827.8293 1378.2559 -830.3042 1368.8722 C-832.0001 1360.4127 -832.0245 1352.3103 -831.019 1343.759 C-826.93 1322.9566 -814.2359 1303.3454 -804.0463 1285.0011 C-800.0179 1277.7358 -796.328 1270.3006 -792.8042 1262.7785 C-789.1989 1255.2342 -785.002 1248.7296 -780.0424 1242.009 C-774.4364 1233.9392 -769.9759 1225.1403 -765.4448 1216.4347 C-761.2966 1208.4811 -756.7678 1200.913 -751.9262 1193.3713 C-747.9087 1187.0876 -744.2376 1180.6559 -740.6323 1174.1261 C-738.3848 1170.1692 -735.9979 1166.3357 -733.5542 1162.4972 C-729.2329 1155.6703 -725.3079 1148.6881 -721.4582 1141.5866 C-718.7941 1136.6857 -716.0376 1131.8769 -713.1167 1127.1222 C-708.2438 1119.127 -703.864 1110.8777 -699.4768 1102.6081 C-696.9529 1097.8649 -694.4189 1093.1673 -691.5893 1088.5988 C-686.4736 1080.1992 -682.2435 1071.2649 -677.8208 1062.4867 C-664.4682 1036.0233 -664.4682 1036.0233 -655.8042 1026.8097 C-651.2072 1021.5172 -648.4006 1016.6038 -645.8706 1010.0949 C-645.3949 1008.8252 -644.9192 1007.5554 -644.4292 1006.2472 C-636.7256 987.0811 -628.2218 968.0205 -614.9292 951.9972 C-610.8307 946.8742 -608.246 941.061 -605.4018 935.1808 C-602.3462 929.0879 -598.6309 923.5097 -594.8237 917.8683 C-590.3238 911.0383 -586.58 903.9053 -582.8352 896.6457 C-578.9851 889.2163 -574.8898 881.9526 -570.7021 874.7094 C-567.8175 869.7099 -565.0376 864.6782 -562.3667 859.5597 C-559.4408 853.9878 -556.2553 848.6465 -552.9292 843.3097 C-548.6223 836.3912 -544.8607 829.3432 -541.3081 822.0011 C-539.5722 818.533 -537.6819 815.2535 -535.6792 811.9347 C-531.7514 805.2036 -528.6657 798.1917 -525.5542 791.0597 C-518.5452 775.0727 -511.2064 760.3804 -500.9597 746.2226 C-493.8995 736.3482 -488.103 725.7669 -482.1308 715.215 C-479.8132 711.173 -477.3871 707.205 -474.9292 703.2472 C-464.7688 686.8017 -455.2763 669.967 -446.1328 652.9384 C-441.7176 644.7297 -437.1275 636.6324 -432.476 628.5558 C-429.7421 623.8071 -427.0535 619.0337 -424.3701 614.2563 C-419.8756 606.2582 -415.3329 598.3253 -410.4565 590.5519 C-407.3779 585.5336 -404.4616 580.4223 -401.5478 575.3068 C-399.1325 571.092 -396.6218 566.9757 -393.9721 562.9035 C-390.344 557.2475 -387.3143 551.3736 -384.3042 545.3722 C-380.2116 537.3435 -375.9164 529.5839 -371.0542 521.9972 C-365.111 512.6964 -360.0835 503.0328 -355.0947 493.1933 C-350.516 484.211 -345.5828 475.5165 -340.4199 466.86 C-336.5932 460.3911 -333.1415 453.823 -329.8667 447.0597 C-324.8793 436.7775 -318.9965 427.2122 -312.8847 417.5685 C-306.6666 407.6521 -301.3605 397.5277 -296.9917 386.6769 C-293.439 378.0858 -289.2327 370.4375 -284.1914 362.6716 C-276.4089 350.6708 -269.4385 338.1966 -262.8667 325.4972 C-259.5014 319.0511 -255.7441 313.0166 -251.7236 306.9618 C-245.1245 296.9012 -239.6532 286.184 -234.0053 275.5719 C-227.9755 264.265 -221.6481 253.2235 -214.9292 242.3097 C-209.163 232.9398 -203.797 223.4897 -198.8115 213.6845 C-194.7496 205.7359 -190.3165 198.046 -185.7756 190.363 C-181.5835 183.2616 -177.542 176.09 -173.5542 168.8722 C-168.6677 160.0481 -163.5184 151.4294 -158.1792 142.8722 C-152.2072 133.2883 -146.6944 123.6015 -141.5913 113.5314 C-126.6433 84.1504 -126.6433 84.1504 -117.7417 71.6222 C-112.8931 64.5135 -109.4014 57.018 -105.8667 49.1847 C-99.8877 35.961 -93.691 24.0206 -83.6206 13.3722 C-80.3783 10.2282 -77.237 7.7039 -73.4292 5.2472 C-68.5412 3.5568 -64.2109 2.9806 -59.0542 2.9035 C-57.6555 2.8738 -56.2569 2.8442 -54.8159 2.8136 C-53.3683 2.7917 -51.9206 2.7698 -50.4292 2.7472 C-47.5749 2.7031 -44.7207 2.651 -41.8667 2.591 C-40.6072 2.5723 -39.3478 2.5536 -38.0502 2.5343 C-34.2089 2.2957 -30.588 1.8278 -26.7922 1.2447 C-17.851 0.0409 -9.0068 -0.0288 0 0 Z " fill="#2ba8a4" transform="translate(1722.4291534423828,266.7527618408203)"/>
    <path d="M0 0 C2.64 0.33 5.28 0.66 8 1 C12.3368 3.5386 15.7992 6.4529 19.0273 10.3125 C25.1285 18.6246 30.0218 27.6614 34.1975 37.0632 C39.2827 48.4617 45.821 58.6148 52.7734 68.9548 C60.3146 80.1879 66.9064 91.5644 72.8643 103.6997 C76.4346 110.931 80.2988 117.9465 84.625 124.75 C88.5317 130.9826 91.8497 137.4532 95.1875 144 C102.0496 157.3921 109.6364 170.237 118.168 182.6367 C124.8329 192.3267 130.171 202.0392 134.9927 212.7642 C140.0186 223.9197 145.9056 234.1407 152.5781 244.3633 C156.8576 250.9969 160.6224 257.7719 164.1875 264.8125 C168.3519 273.0313 172.884 280.6179 178.0078 288.2812 C182.586 295.3189 186.5118 302.7523 190.5227 310.1221 C196.1431 320.4168 202.0918 330.4238 208.875 340 C214.5773 348.4569 218.6804 357.4965 222.9351 366.73 C225.0695 371.2796 227.5178 375.6343 230 380 C230.6987 381.2736 231.3973 382.5472 232.1172 383.8594 C238.6717 395.7326 238.6717 395.7326 242.4375 400.875 C245.9881 405.7763 248.8541 410.983 251.7502 416.2917 C254.8926 422.0412 258.144 427.7178 261.4448 433.3777 C267.5338 443.8189 273.3488 454.3419 278.8672 465.0952 C282.1708 471.5026 285.7483 477.6655 289.5234 483.8086 C296.2625 495.214 302.4094 507.01 308.4766 518.7852 C312.8168 527.1737 317.5308 535.1679 322.6162 543.1157 C330.4336 555.3338 337.0927 567.589 342.1992 581.1953 C344.1646 586.3015 346.1561 590.4801 349.7148 594.668 C353.988 599.8837 357.6363 605.337 361.1875 611.0625 C361.834 612.0998 362.4806 613.1371 363.1467 614.2058 C368.1836 622.4091 372.655 630.8275 377.0078 639.408 C384.7991 654.6592 393.4744 669.5752 403.1875 683.6875 C408.6582 691.6923 413.0931 700.2096 417.6484 708.7539 C420.822 714.7005 424.1065 720.5779 427.4375 726.4375 C427.9673 727.3708 428.4971 728.3041 429.043 729.2656 C430.1303 731.1809 431.2179 733.0961 432.3057 735.0112 C452.7794 771.1263 452.7794 771.1263 457.4258 781.043 C460.8827 788.4145 465.2672 794.6035 470.1445 801.1133 C478.2947 812.2068 484.5751 823.9084 490.6135 836.2266 C493.9533 843.01 497.5576 849.5014 501.5391 855.9336 C504.7378 861.2192 507.7431 866.6036 510.75 872 C511.0478 872.5335 511.0478 872.5335 512.5549 875.2334 C514.9567 879.5378 517.3559 883.8436 519.7544 888.1499 C530.435 907.2986 530.435 907.2986 535.625 915.125 C543.1602 926.573 549.103 939.0263 555 951.375 C558.3403 958.1233 562.4473 963.8378 566.9961 969.8164 C573.0711 978.0451 577.9942 987.0976 583 996 C583.7618 997.3522 584.5237 998.7045 585.3086 1000.0977 C588.1228 1005.3809 590.3565 1010.3688 591.5625 1016.25 C591.9851 1019.9417 591.9209 1023.0014 591.625 1026.75 C589.9277 1033.465 586.4975 1039.5004 583.2729 1045.585 C581.8918 1048.2052 580.5402 1050.8395 579.1914 1053.4766 C574.1146 1063.3635 568.8694 1073.0974 563.209 1082.6621 C559.4425 1089.086 556.0599 1095.6751 552.6875 1102.3125 C545.7646 1115.8563 537.766 1128.5978 529.1758 1141.1406 C523.2719 1149.7839 518.5648 1158.5913 514 1168 C507.6201 1180.8614 500.7893 1193.1824 492.9421 1205.208 C488.7594 1211.6638 485.1907 1218.2434 481.8594 1225.1836 C476.9308 1235.2997 471.677 1245.6655 464 1254 C460.7805 1257.053 458.0773 1259.4957 454.0625 1261.375 C453.7222 1261.4781 453.7222 1261.4781 452 1262 C449.36 1261.67 446.72 1261.34 444 1261 C440.0637 1257.9775 436.8458 1255.1939 433.9688 1251.1328 C431.2221 1246.675 428.6398 1242.1358 426.0703 1237.5742 C422.6556 1231.5197 419.1503 1225.632 415.25 1219.875 C404.5963 1204.1069 395.0126 1187.5098 386.2461 1170.6211 C382.9801 1164.333 379.3525 1158.4233 375.375 1152.5625 C365.2013 1137.5086 356.3989 1122.0215 348.4375 1105.6875 C343.6137 1095.8102 338.5428 1086.8905 331.957 1078.1094 C327.8089 1072.5083 324.4206 1066.4528 320.9275 1060.4316 C317.2172 1054.0405 313.3735 1047.7543 309.4375 1041.5 C301.9667 1029.5575 295.2617 1017.2164 288.7773 1004.7148 C282.6381 992.8839 275.7992 981.5347 268.8945 970.1382 C265.9842 965.3174 263.1131 960.4739 260.25 955.625 C259.9848 955.1763 259.9848 955.1763 258.6426 952.9055 C254.6729 946.1751 250.7762 939.4042 246.8884 932.6262 C244.17 927.9204 241.3105 923.348 238.3125 918.8125 C234.4245 912.8601 231.2684 906.7137 228.1484 900.332 C222.5104 888.9638 216.6103 877.9091 209.0625 867.6875 C201.7817 857.7997 196.4943 846.9455 191 836 C183.804 821.8067 175.7709 808.8233 166 796.25 C157.5808 785.2802 151.709 773.1223 146.3125 760.4375 C141.9338 750.3444 136.378 741.0189 130.8125 731.543 C127.3342 725.6137 124.0115 719.6132 120.75 713.5625 C114.1096 701.2801 107.2587 689.1277 99.8125 677.3125 C96.1121 671.3692 93.018 665.1966 89.9297 658.918 C86.0044 650.9482 82.012 643.2819 76.8125 636.0625 C72.6701 630.2716 69.3712 624.2225 66.0625 617.9375 C62.1366 610.5174 58.0324 604.2214 52.418 597.9375 C47.4267 591.8738 43.8169 584.8386 40 578 C37.8361 574.1443 35.6683 570.2907 33.5 566.4375 C32.9432 565.4448 32.3864 564.452 31.8127 563.4292 C28.7266 557.9542 25.5312 552.5972 22.125 547.3125 C15.3488 536.6625 9.6417 525.4087 3.7319 514.2637 C-1.724 503.9825 -7.2744 493.9126 -13.875 484.3125 C-20.3565 474.878 -25.4467 464.8419 -30.6289 454.6548 C-33.8948 448.3311 -37.4694 442.1785 -41 436 C-42.5647 433.2304 -44.1272 430.4596 -45.6875 427.6875 C-46.0607 427.0262 -46.0607 427.0262 -47.9492 423.6797 C-49.6779 420.5779 -51.3469 417.4547 -53 414.3125 C-55.1716 410.2974 -57.6149 406.6019 -60.25 402.875 C-73.1872 384.4148 -82.7845 364.0226 -92.5273 343.7578 C-95.7839 337.0447 -98.7067 331.2933 -104 326 C-104.8456 325.1956 -105.6912 324.3913 -106.5625 323.5625 C-109.6361 320.3313 -111.9704 316.9501 -114 313 C-114.7775 311.0315 -115.5251 309.051 -116.25 307.0625 C-120.2877 296.1392 -126.0295 286.0063 -132.25 276.1875 C-136.6378 269.216 -139.9992 262.0034 -142 254 C-142.1715 251.5037 -142.2664 249.0017 -142.3125 246.5 C-142.3499 245.1903 -142.3873 243.8806 -142.4258 242.5312 C-141.5899 233.6358 -137.9966 225.5212 -134.2468 217.4807 C-134.0102 216.9889 -134.0102 216.9889 -132.8125 214.5 C-132.2999 213.4332 -131.7872 212.3664 -131.259 211.2673 C-125.9308 200.45 -119.6748 190.2583 -113.3242 180.0195 C-109.0794 173.1732 -105.0114 166.2352 -101 159.25 C-100.3774 158.1675 -99.7548 157.085 -99.1133 155.9697 C-96.5189 151.445 -93.9406 146.9129 -91.418 142.3477 C-87.954 136.0809 -84.4102 130.0622 -80.3125 124.1875 C-74.87 116.2097 -70.6168 107.7156 -66.2478 99.1152 C-62.8556 92.4737 -59.3462 86 -55.375 79.6875 C-51.2866 73.1822 -47.5173 66.5773 -43.875 59.8125 C-39.8084 52.2663 -35.6182 44.8374 -31.1484 37.5195 C-29.6538 35.0711 -28.1814 32.609 -26.7266 30.1367 C-15.2759 10.694 -15.2759 10.694 -8.3125 4.4375 C-5.5136 2.3779 -3.3007 1.0002 0 0 Z " fill="#2ba8a4" transform="translate(408,299)"/>
    <path d="M0 0 C4.6207 -0.0019 9.2414 -0.0095 13.8621 -0.0161 C23.8978 -0.0295 33.9335 -0.0357 43.9692 -0.0401 C50.2472 -0.0429 56.5252 -0.0472 62.8032 -0.0517 C80.2314 -0.0638 97.6595 -0.0741 115.0877 -0.0775 C116.1963 -0.0777 117.3049 -0.078 118.4471 -0.0782 C119.558 -0.0784 120.6689 -0.0786 121.8135 -0.0789 C124.064 -0.0793 126.3145 -0.0797 128.565 -0.0802 C129.1232 -0.0803 129.1232 -0.0803 131.9477 -0.0809 C150.1035 -0.0848 168.2592 -0.1023 186.4149 -0.1256 C205.1132 -0.1493 223.8114 -0.1617 242.5096 -0.1629 C252.9857 -0.1638 263.4619 -0.1695 273.938 -0.1877 C282.8376 -0.2031 291.7371 -0.2082 300.6366 -0.2 C305.1727 -0.1961 309.7087 -0.197 314.2447 -0.211 C319.1639 -0.2261 324.0828 -0.2179 329.002 -0.2074 C330.4303 -0.2155 331.8586 -0.2236 333.3301 -0.2319 C339.1633 -0.2028 344.557 -0.0582 350.1907 1.5463 C354.4222 3.16 354.4222 3.16 357.5472 5.3475 C358.166 5.9457 358.7847 6.5438 359.4222 7.16 C360.4122 9.8 361.4022 12.44 362.4222 15.16 C362.1598 20.4086 361.3859 24.7744 359.4222 29.66 C353.9224 42.0937 347.0929 53.8299 340.1683 65.5077 C324.4321 92.1021 324.4321 92.1021 319.0824 105.3944 C315.2098 114.1783 310.1628 122.3751 305.2347 130.5975 C300.4049 138.6998 295.7901 146.8901 291.3063 155.1879 C288.7136 159.9434 285.957 164.4795 282.9222 168.9725 C278.9872 174.9136 275.9782 181.0891 272.9847 187.535 C267.1821 200.0162 260.2478 211.3093 252.1878 222.4764 C249.9334 225.9031 248.0503 229.4844 246.1097 233.0975 C242.0643 240.3833 237.673 246.6072 231.4222 252.16 C226.6003 255.1107 221.9234 256.9054 216.4222 258.16 C209.1704 259.1697 202.0828 259.2757 194.7684 259.2135 C193.5297 259.2071 192.2909 259.2007 191.0146 259.1941 C186.9343 259.1714 182.8541 259.1408 178.7738 259.1093 C175.9175 259.09 173.0613 259.071 170.205 259.0521 C164.2183 259.0111 158.2316 258.9659 152.245 258.9181 C144.6187 258.8577 136.9925 258.8107 129.3661 258.7673 C123.4634 258.7317 117.5607 258.6875 111.6581 258.6409 C108.8492 258.62 106.0404 258.6021 103.2315 258.5873 C65.4314 258.378 65.4314 258.378 51.7347 254.41 C48.2343 253.084 45.1771 251.5561 42.1097 249.41 C37.5373 245.3801 33.1529 241.2796 30.1764 235.9144 C29.0789 233.5 28.0798 231.0659 27.1097 228.5975 C26.3339 226.7251 25.5578 224.8527 24.7816 222.9804 C23.6138 220.1109 22.4537 217.2386 21.3031 214.3622 C16.1104 201.4532 10.0035 189.7696 2.5353 178.0219 C-2.2381 170.4771 -6.5326 162.8053 -10.5778 154.8475 C-14.2964 147.5343 -18.0868 140.4173 -22.4997 133.4921 C-30.9888 119.8807 -38.5444 105.6603 -46.2443 91.5931 C-60.4829 65.6132 -60.4829 65.6132 -65.8473 57.8944 C-73.0682 47.468 -79.5456 36.2566 -83.5778 24.16 C-83.6468 22.0986 -83.6625 20.035 -83.6403 17.9725 C-83.6358 17.4292 -83.6358 17.4292 -83.6129 14.6796 C-83.6013 13.8481 -83.5897 13.0167 -83.5778 12.16 C-82.2578 10.18 -80.9378 8.2 -79.5778 6.16 C-75.2361 3.8788 -71.4348 1.8893 -66.5778 1.16 C-64.6052 1.0175 -62.6293 0.9177 -60.6527 0.8493 C-59.4688 0.8082 -58.2848 0.767 -57.0649 0.7246 C-56.4198 0.7053 -56.4198 0.7053 -53.1555 0.6076 C-51.7861 0.5655 -50.4167 0.5235 -49.0058 0.4801 C-32.6723 0.0216 -16.3387 0.0029 0 0 Z " fill="#2ba8a4" transform="translate(1053.5777798891068,566.8399572372437)"/>
  </g>
</svg>